<?xml version="1.0" encoding="UTF-8" ?>
<!DOCTYPE svg PUBLIC "-//W3C//DTD SVG 1.1//EN" "http://www.w3.org/Graphics/SVG/1.1/DTD/svg11.dtd">
<svg width="788pt" height="320pt" viewBox="0 0 788 320" version="1.1" xmlns="http://www.w3.org/2000/svg">
<g id="#ffffffff">
</g>
<g id="#722670ff">
<path fill="#722670" opacity="1.00" d=" M 151.81 118.81 C 153.20 117.04 155.72 116.62 157.83 116.87 C 160.40 119.34 163.36 122.79 162.12 126.62 C 161.95 126.20 161.61 125.37 161.45 124.96 C 160.03 122.45 157.46 118.67 154.16 120.06 C 153.28 123.03 154.12 126.16 154.46 129.16 L 154.51 129.51 C 151.45 131.09 147.89 133.77 149.60 137.72 C 152.48 137.55 155.36 137.36 158.25 137.28 C 155.00 139.49 149.80 142.24 146.88 138.09 C 146.27 136.13 146.69 134.12 147.47 132.28 C 149.09 130.53 151.06 129.17 153.01 127.82 C 151.80 125.03 150.15 121.77 151.81 118.81 Z" />
</g>
<g id="#ff7100ff">
<path fill="#ff7100" opacity="1.00" d=" M 157.83 116.87 C 161.71 118.18 164.18 121.92 165.02 125.78 C 167.54 124.01 170.56 124.17 173.45 124.69 C 175.35 128.69 170.64 130.58 167.51 131.11 C 167.87 130.57 168.60 129.50 168.96 128.96 C 168.70 128.45 168.20 127.42 167.94 126.91 C 167.42 126.89 166.38 126.84 165.86 126.81 C 164.56 126.96 163.26 127.15 161.97 127.36 L 162.12 126.62 C 163.36 122.79 160.40 119.34 157.83 116.87 Z" />
<path fill="#ff7100" opacity="1.00" d=" M 154.16 120.06 C 157.46 118.67 160.03 122.45 161.45 124.96 C 160.22 124.19 159.00 123.40 157.79 122.61 C 156.58 123.44 154.68 124.06 154.71 125.84 C 155.05 126.92 155.44 127.98 155.88 129.03 C 158.57 128.01 163.42 127.18 164.11 130.97 C 164.00 134.02 160.04 132.98 157.98 133.41 C 157.02 132.28 156.05 131.16 155.09 130.04 C 154.16 130.98 153.23 131.93 152.30 132.87 C 152.97 134.20 153.22 136.09 154.92 136.54 C 156.99 136.83 158.61 135.35 160.28 134.40 C 161.74 135.01 163.21 135.58 164.70 136.11 C 164.68 134.17 164.24 132.14 165.01 130.28 C 165.57 129.85 166.70 129.00 167.26 128.58 C 166.72 129.66 166.18 130.74 165.65 131.83 C 166.56 133.77 165.79 135.66 164.98 137.47 C 165.56 137.17 166.71 136.56 167.29 136.25 C 167.41 135.81 167.66 134.94 167.78 134.50 C 169.26 136.20 170.29 138.18 170.84 140.37 C 167.41 142.12 163.88 140.37 161.68 137.59 C 158.94 140.50 155.25 143.36 150.97 142.39 C 148.66 142.18 147.76 139.88 146.88 138.09 C 149.80 142.24 155.00 139.49 158.25 137.28 C 155.36 137.36 152.48 137.55 149.60 137.72 C 147.89 133.77 151.45 131.09 154.51 129.51 C 154.57 129.47 154.70 129.39 154.76 129.35 L 154.46 129.16 C 154.12 126.16 153.28 123.03 154.16 120.06 Z" />
</g>
<g id="#feb9d3ff">
<path fill="#feb9d3" opacity="1.00" d=" M 154.71 125.84 C 154.68 124.06 156.58 123.44 157.79 122.61 C 159.00 123.40 160.22 124.19 161.45 124.96 C 161.61 125.37 161.95 126.20 162.12 126.62 L 161.97 127.36 C 163.26 127.15 164.56 126.96 165.86 126.81 C 166.21 127.26 166.91 128.14 167.26 128.58 C 166.70 129.00 165.57 129.85 165.01 130.28 C 164.24 132.14 164.68 134.17 164.70 136.11 C 163.21 135.58 161.74 135.01 160.28 134.40 C 158.61 135.35 156.99 136.83 154.92 136.54 C 153.22 136.09 152.97 134.20 152.30 132.87 C 153.23 131.93 154.16 130.98 155.09 130.04 C 156.05 131.16 157.02 132.28 157.98 133.41 C 160.04 132.98 164.00 134.02 164.11 130.97 C 163.42 127.18 158.57 128.01 155.88 129.03 C 155.44 127.98 155.05 126.92 154.71 125.84 Z" />
</g>
<g id="#00266cff">
<path fill="#00266c" opacity="1.00" d=" M 165.86 126.81 C 166.38 126.84 167.42 126.89 167.94 126.91 C 168.20 127.42 168.70 128.45 168.96 128.96 C 168.60 129.50 167.87 130.57 167.51 131.11 L 166.99 131.87 L 167.14 132.36 C 167.30 132.89 167.62 133.97 167.78 134.50 C 167.66 134.94 167.41 135.81 167.29 136.25 C 166.71 136.56 165.56 137.17 164.98 137.47 C 165.79 135.66 166.56 133.77 165.65 131.83 C 166.18 130.74 166.72 129.66 167.26 128.58 C 166.91 128.14 166.21 127.26 165.86 126.81 Z" />
<path fill="#00266c" opacity="1.00" d=" M 176.78 203.32 C 178.66 202.68 180.53 202.00 182.44 201.46 C 188.13 203.70 193.46 208.15 199.90 207.43 C 202.53 206.53 204.64 204.40 205.71 201.85 C 207.55 203.29 206.13 205.30 205.24 206.86 C 206.53 207.26 208.25 207.31 208.26 209.14 C 207.47 209.17 205.88 209.23 205.09 209.26 C 205.31 210.49 206.52 211.89 205.23 213.00 C 204.27 211.74 203.35 210.47 202.46 209.17 C 199.96 209.64 197.37 210.43 194.84 209.69 C 189.35 208.65 184.97 204.81 179.56 203.57 C 180.93 209.47 182.24 215.50 185.08 220.91 C 187.56 225.90 190.47 231.00 190.42 236.75 C 188.64 237.61 186.81 238.42 184.90 238.96 C 174.37 241.85 163.41 243.73 152.45 242.94 C 150.22 242.18 151.83 239.74 151.65 238.16 C 153.10 228.16 149.77 218.38 148.67 208.53 C 149.01 207.34 149.41 206.17 149.81 205.00 C 150.28 205.17 151.22 205.51 151.69 205.68 C 154.24 216.84 155.22 228.34 154.59 239.76 C 156.79 239.39 158.99 239.02 161.19 238.67 C 163.48 241.37 167.18 241.21 169.86 239.23 C 171.21 239.53 172.55 239.88 173.94 240.00 C 175.98 240.04 176.46 237.79 177.31 236.40 C 179.65 237.98 184.31 238.67 184.66 234.83 C 183.35 224.07 180.66 213.45 176.78 203.32 Z" />
</g>
<g id="#e43d5aff">
<path fill="#e43d5a" opacity="1.00" d=" M 616.28 129.22 C 617.28 127.45 619.90 125.78 621.71 127.50 C 624.38 130.22 623.80 134.48 623.40 137.95 C 621.78 138.91 619.97 139.45 618.11 139.64 C 615.95 138.61 613.44 138.37 611.25 139.41 C 613.23 140.91 615.74 140.22 617.93 139.67 C 618.94 139.65 620.96 139.60 621.98 139.58 C 621.21 141.47 618.98 141.34 617.45 142.19 C 616.22 142.71 615.04 143.30 613.87 143.91 C 609.42 145.04 604.88 146.27 600.26 145.61 C 598.43 139.49 606.32 136.25 611.30 136.91 C 613.52 137.42 615.76 137.87 618.01 138.28 C 617.77 137.87 617.27 137.05 617.02 136.64 C 616.14 134.33 615.05 131.62 616.28 129.22 Z" />
</g>
<g id="#ef989eff">
<path fill="#ef989e" opacity="1.00" d=" M 154.46 129.16 L 154.76 129.35 C 154.70 129.39 154.57 129.47 154.51 129.51 L 154.46 129.16 Z" />
</g>
<g id="#000100ff">
<path fill="#000100" opacity="1.00" d=" M 605.37 132.17 C 605.18 129.80 608.50 127.87 610.32 129.65 C 612.75 131.78 614.70 134.39 617.02 136.64 C 617.27 137.05 617.77 137.87 618.01 138.28 C 615.76 137.87 613.52 137.42 611.30 136.91 C 609.08 135.71 606.66 134.44 605.37 132.17 Z" />
<path fill="#000100" opacity="1.00" d=" M 623.40 137.95 C 637.35 131.40 656.16 137.11 663.45 150.89 C 668.08 160.36 665.81 171.79 660.58 180.53 C 660.45 179.76 660.18 178.23 660.05 177.46 C 661.94 173.93 663.08 170.03 663.34 166.03 C 661.81 164.91 660.32 163.74 658.83 162.59 C 660.25 161.98 661.61 161.22 662.86 160.29 C 660.65 159.98 658.45 159.73 656.24 159.51 C 657.06 158.63 657.88 157.76 658.71 156.87 C 656.63 155.12 655.90 152.85 657.37 150.33 C 656.85 150.48 655.81 150.77 655.29 150.92 C 655.15 149.67 655.29 148.03 653.94 147.40 C 651.58 146.92 649.18 146.85 646.84 146.34 C 647.03 145.58 647.41 144.06 647.60 143.30 C 646.53 142.90 645.47 142.51 644.42 142.13 C 643.82 142.45 642.61 143.11 642.00 143.44 C 638.87 143.85 637.84 139.43 634.52 139.91 C 634.54 140.51 634.58 141.73 634.60 142.33 C 633.08 141.71 631.59 141.04 630.12 140.34 C 626.21 140.67 622.80 142.56 619.87 145.05 C 616.86 145.45 614.89 147.94 612.14 148.92 C 612.40 148.46 612.94 147.53 613.21 147.06 C 614.71 145.52 616.07 143.85 617.45 142.19 C 618.98 141.34 621.21 141.47 621.98 139.58 C 620.96 139.60 618.94 139.65 617.93 139.67 L 618.11 139.64 C 619.97 139.45 621.78 138.91 623.40 137.95 Z" />
</g>
<g id="#fed058ff">
<path fill="#fed058" opacity="1.00" d=" M 135.82 133.37 C 139.63 132.44 143.56 132.07 147.47 132.28 C 146.69 134.12 146.27 136.13 146.88 138.09 C 147.76 139.88 148.66 142.18 150.97 142.39 C 155.25 143.36 158.94 140.50 161.68 137.59 C 163.88 140.37 167.41 142.12 170.84 140.37 C 170.29 138.18 169.26 136.20 167.78 134.50 C 167.62 133.97 167.30 132.89 167.14 132.36 C 169.13 133.06 171.11 133.80 173.08 134.58 C 174.43 133.93 175.77 133.26 177.11 132.59 C 177.50 132.79 178.27 133.19 178.65 133.38 C 176.97 134.18 175.31 135.12 175.38 137.29 C 178.02 137.72 180.58 137.02 183.01 136.05 C 182.39 137.45 181.78 138.87 181.18 140.28 C 181.65 140.38 182.60 140.58 183.07 140.68 C 182.90 141.21 182.57 142.27 182.41 142.80 C 183.43 142.56 184.45 142.33 185.48 142.10 C 185.15 142.99 184.49 144.76 184.16 145.65 C 186.66 146.35 188.99 145.29 191.10 144.07 C 190.30 145.72 189.51 147.39 189.18 149.22 C 189.94 148.71 191.46 147.68 192.22 147.17 C 191.74 149.29 190.63 151.15 189.35 152.87 C 190.58 152.69 191.82 152.51 193.06 152.32 C 191.22 155.43 193.75 159.95 197.06 160.38 C 196.72 161.57 196.38 162.77 196.05 163.97 C 197.40 163.70 198.76 163.43 200.13 163.17 C 199.09 166.03 197.25 168.82 197.39 171.95 C 198.50 173.59 199.82 175.06 201.02 176.64 C 200.07 176.53 198.16 176.33 197.21 176.22 C 197.40 176.73 197.78 177.76 197.97 178.27 C 196.17 178.10 194.39 177.90 192.62 177.54 C 192.44 178.58 192.30 179.62 192.18 180.67 C 193.21 181.87 194.54 182.74 195.77 183.71 C 193.21 183.39 190.70 182.76 188.21 182.14 C 188.32 185.06 188.50 187.98 188.64 190.90 C 187.80 189.41 186.97 187.91 186.10 186.45 L 185.16 186.32 C 182.74 185.93 180.41 185.13 177.99 184.81 C 179.16 181.83 180.09 178.73 180.29 175.51 C 180.48 174.10 180.01 172.73 179.77 171.37 C 178.50 171.24 177.23 171.13 175.96 171.03 C 177.17 170.48 178.35 169.87 179.55 169.27 C 179.01 168.21 178.50 167.14 178.02 166.06 C 178.05 165.64 178.11 164.81 178.14 164.39 L 178.22 163.11 C 177.81 162.69 176.98 161.87 176.57 161.46 C 176.63 160.11 176.69 158.75 176.76 157.40 C 175.29 157.09 173.83 156.78 172.37 156.48 C 173.07 155.77 173.77 155.05 174.47 154.34 C 171.07 154.16 167.55 153.02 166.19 149.58 C 163.81 150.07 161.62 149.47 160.31 147.33 C 160.34 148.07 160.40 149.56 160.43 150.30 C 159.25 150.27 158.07 150.28 156.89 150.26 C 156.61 150.52 156.04 151.04 155.75 151.31 C 154.85 150.90 153.96 150.50 153.06 150.11 C 152.73 151.33 152.40 152.57 152.08 153.80 C 151.16 153.27 150.32 152.48 149.24 152.32 C 148.61 153.14 148.03 153.99 147.47 154.85 C 146.40 154.67 145.33 154.48 144.26 154.29 C 144.40 155.24 144.67 157.13 144.81 158.07 C 143.60 157.61 142.41 157.16 141.21 156.70 C 140.90 155.37 140.58 154.04 140.27 152.71 C 139.96 154.88 139.69 157.06 139.46 159.24 C 139.20 157.71 138.92 156.20 138.61 154.68 C 138.18 155.90 137.83 157.14 137.50 158.38 C 137.17 158.41 136.52 158.45 136.20 158.48 C 135.28 162.01 133.68 165.60 134.53 169.32 C 136.11 172.12 138.40 174.40 140.77 176.53 C 140.73 176.76 140.66 177.23 140.63 177.47 C 139.33 177.56 138.03 177.66 136.73 177.77 C 137.45 179.37 138.30 180.92 139.36 182.33 C 139.11 183.38 138.33 184.07 137.52 184.73 C 138.99 185.69 140.40 186.76 141.60 188.06 C 140.87 188.06 139.41 188.05 138.68 188.04 C 138.62 188.51 138.51 189.46 138.45 189.93 C 136.43 189.52 134.61 188.58 132.96 187.36 C 128.80 189.73 124.81 192.50 120.10 193.71 C 120.83 192.00 122.27 190.80 123.58 189.55 C 123.59 188.95 123.62 187.74 123.63 187.14 C 120.61 188.65 117.62 190.38 114.20 190.75 C 117.63 188.74 119.87 184.97 120.10 181.01 C 116.22 180.56 112.62 179.02 109.01 177.65 C 112.46 176.88 116.08 175.53 118.12 172.44 C 115.07 171.98 112.19 170.80 109.13 170.40 C 111.37 169.60 115.11 170.27 115.96 167.60 C 114.94 167.52 112.91 167.38 111.89 167.30 C 113.14 166.40 114.66 166.09 116.11 165.68 C 114.74 165.31 113.38 164.94 112.01 164.57 C 114.28 163.81 117.47 164.10 118.86 161.84 C 117.58 161.49 116.30 161.15 115.02 160.82 C 118.09 160.62 121.02 159.68 123.85 158.52 C 119.77 157.90 115.72 157.04 111.82 155.65 C 115.37 155.07 118.89 154.04 121.78 151.81 C 124.84 150.06 125.45 146.27 127.76 143.83 C 128.85 142.69 131.00 142.37 130.95 140.41 C 128.88 140.53 126.81 140.66 124.74 140.70 C 129.81 137.23 135.94 135.45 141.97 134.47 C 139.91 134.15 137.86 133.79 135.82 133.37 Z" />
</g>
<g id="#672800ff">
<path fill="#672800" opacity="1.00" d=" M 368.48 131.90 C 369.43 133.02 370.34 134.19 371.10 135.46 C 371.86 136.79 372.83 137.99 373.94 139.05 C 375.07 141.21 375.35 143.63 375.32 146.03 C 374.24 143.72 372.76 141.64 370.87 139.93 C 367.98 143.05 363.62 143.34 359.68 142.59 C 360.49 142.35 362.13 141.87 362.95 141.64 C 362.63 140.30 363.31 138.39 362.09 137.48 C 355.77 137.32 350.19 140.49 344.64 143.04 C 345.90 142.01 347.28 141.19 348.80 140.58 C 346.65 139.53 344.54 140.54 343.36 142.48 C 342.25 143.48 342.85 140.19 341.40 141.20 C 338.06 144.02 335.11 147.55 333.72 151.76 C 333.52 151.36 333.12 150.56 332.92 150.15 C 332.70 150.48 332.24 151.14 332.02 151.47 C 331.18 152.78 330.25 154.01 329.21 155.15 C 331.22 149.03 334.63 142.46 341.03 140.06 C 342.34 139.60 343.32 138.35 344.76 138.28 C 345.12 138.60 345.84 139.24 346.19 139.56 C 349.15 137.88 352.26 136.45 355.52 135.43 L 355.32 134.45 C 359.51 133.31 363.88 133.95 368.17 133.81 C 368.25 133.33 368.40 132.38 368.48 131.90 M 350.97 138.37 C 351.21 138.67 351.21 138.67 350.97 138.37 Z" />
</g>
<g id="#8f5800ff">
<path fill="#8f5800" opacity="1.00" d=" M 508.59 138.84 C 509.18 137.44 509.76 135.97 511.05 135.07 C 511.17 135.45 511.39 136.21 511.51 136.59 C 515.50 136.92 519.35 135.61 523.31 135.34 C 523.82 135.60 524.84 136.13 525.35 136.39 C 526.17 138.83 529.75 138.31 531.73 139.06 C 530.75 139.66 529.77 140.23 528.78 140.79 C 530.18 141.05 531.65 141.52 532.31 142.93 C 527.64 140.63 522.48 139.44 517.27 139.69 C 516.74 141.29 516.71 142.92 517.32 144.50 C 518.02 144.75 519.43 145.26 520.13 145.51 C 516.43 145.75 511.98 146.64 509.36 143.30 C 507.40 145.18 506.05 147.51 505.31 150.11 C 505.02 148.01 505.09 145.90 505.50 143.82 C 500.92 148.44 498.75 154.82 497.72 161.11 C 496.63 168.67 498.99 177.00 504.92 182.05 C 511.99 188.08 522.23 190.52 531.12 187.40 C 539.26 184.88 547.63 179.13 549.35 170.27 C 551.90 171.72 554.72 168.69 553.82 166.16 C 553.67 164.40 551.82 163.98 550.49 163.43 C 550.55 158.70 549.14 153.99 546.89 149.86 C 545.64 150.90 544.42 151.96 543.23 153.05 C 543.24 150.91 543.32 148.73 542.81 146.63 C 542.40 145.70 541.96 144.79 541.54 143.87 C 541.43 144.64 541.20 146.17 541.09 146.93 L 539.92 147.45 C 539.97 145.57 539.93 143.69 539.52 141.85 C 538.33 141.05 537.16 140.24 535.98 139.43 C 541.36 140.03 546.52 142.36 549.56 147.03 C 548.93 152.43 552.07 157.22 552.31 162.55 C 552.86 162.82 553.96 163.35 554.51 163.61 C 555.81 167.07 554.69 171.60 550.69 172.51 C 548.74 178.59 543.68 183.06 538.44 186.39 C 528.55 192.44 515.18 193.18 505.29 186.75 C 497.57 181.77 493.59 172.09 494.47 163.11 C 493.89 163.18 492.72 163.32 492.14 163.39 C 493.36 153.25 498.90 143.06 508.59 138.84 Z" />
</g>
<g id="#a54400ff">
<path fill="#a54400" opacity="1.00" d=" M 371.10 135.46 C 382.22 137.61 389.17 148.31 391.62 158.69 C 391.05 159.39 390.48 160.09 389.91 160.79 C 389.78 160.07 389.50 158.63 389.36 157.90 C 390.86 167.62 387.98 178.80 379.67 184.72 C 364.54 195.78 340.20 189.68 332.14 172.78 C 331.54 172.71 330.33 172.57 329.73 172.50 C 327.43 169.84 326.23 164.88 330.11 163.05 C 330.17 159.11 331.16 155.29 332.02 151.47 C 332.24 151.14 332.70 150.48 332.92 150.15 C 333.12 150.56 333.52 151.36 333.72 151.76 C 332.40 155.80 331.73 160.02 331.70 164.28 C 329.11 164.51 327.91 167.70 329.32 169.76 C 329.98 171.54 332.12 171.28 333.64 171.45 C 340.05 187.20 362.37 192.71 375.96 182.95 C 384.07 177.95 387.85 167.81 386.06 158.61 C 385.97 158.19 385.81 157.36 385.72 156.94 C 383.78 150.01 380.70 142.55 373.94 139.05 C 372.83 137.99 371.86 136.79 371.10 135.46 Z" />
<path fill="#a54400" opacity="1.00" d=" M 390.42 168.53 C 390.94 165.66 389.78 162.39 391.97 160.02 C 392.62 166.56 392.75 174.59 387.08 179.09 C 388.23 175.58 390.03 172.26 390.42 168.53 Z" />
</g>
<g id="#d3ad98ff">
<path fill="#d3ad98" opacity="1.00" d=" M 350.97 138.37 C 351.21 138.67 351.21 138.67 350.97 138.37 Z" />
</g>
<g id="#eb3000ff">
<path fill="#eb3000" opacity="1.00" d=" M 52.94 139.90 C 58.64 138.62 64.42 141.06 70.06 139.26 C 69.33 139.70 67.86 140.58 67.13 141.02 C 67.59 141.35 68.51 142.02 68.96 142.35 C 64.01 141.68 59.22 143.35 55.17 146.12 C 54.08 145.71 52.99 145.30 51.89 144.89 C 49.12 147.90 45.88 150.43 42.12 152.10 C 42.06 152.83 41.94 154.29 41.88 155.02 C 40.41 156.78 38.87 158.48 37.20 160.07 C 35.57 159.07 33.96 158.04 32.35 157.01 C 32.45 158.18 32.55 159.36 32.65 160.53 C 31.90 160.55 31.16 160.57 30.42 160.59 C 29.32 164.54 30.80 169.61 27.29 172.53 C 27.24 172.11 27.14 171.28 27.10 170.86 C 27.04 167.61 27.65 164.39 27.63 161.14 C 30.02 159.33 30.20 156.10 31.78 153.72 C 36.35 146.31 44.28 141.06 52.94 139.90 Z" />
<path fill="#eb3000" opacity="1.00" d=" M 85.56 167.77 C 86.16 166.68 86.76 165.59 87.36 164.50 C 88.41 165.31 89.18 166.33 89.66 167.54 L 90.22 167.60 C 90.98 168.77 92.14 169.28 93.68 169.12 C 92.58 169.50 91.57 170.03 90.65 170.74 C 91.08 171.01 91.93 171.55 92.36 171.82 C 93.32 172.40 94.23 173.06 95.08 173.80 C 92.26 173.49 90.00 171.82 88.10 169.84 C 87.79 169.43 87.17 168.61 86.86 168.20 C 86.62 168.90 86.15 170.30 85.91 171.00 C 85.82 170.19 85.65 168.58 85.56 167.77 Z" />
</g>
<g id="#f36b7fff">
<path fill="#f36b7f" opacity="1.00" d=" M 611.25 139.41 C 613.44 138.37 615.95 138.61 618.11 139.64 L 617.93 139.67 C 615.74 140.22 613.23 140.91 611.25 139.41 Z" />
</g>
<g id="#6e3807ff">
<path fill="#6e3807" opacity="1.00" d=" M 710.69 141.71 C 718.83 138.20 728.50 138.54 736.30 142.79 C 738.90 144.61 741.55 146.36 744.28 148.01 C 744.91 150.41 746.91 152.05 748.34 153.98 C 748.95 152.11 748.91 149.66 750.94 148.63 C 752.49 148.49 754.06 148.49 755.64 148.62 C 755.45 151.87 752.06 153.48 749.86 155.38 C 753.69 154.94 757.37 153.84 761.05 152.71 C 762.87 152.04 765.57 152.57 765.46 155.00 C 766.33 158.56 761.51 157.77 759.42 158.14 C 760.76 159.30 762.03 160.61 762.00 162.50 C 757.93 163.67 753.67 162.31 750.94 159.13 C 751.61 161.37 752.12 163.66 752.98 165.84 C 754.05 167.92 756.27 168.85 758.23 169.89 C 757.18 169.78 755.08 169.56 754.02 169.44 C 755.81 171.06 757.80 172.47 759.92 173.64 C 757.25 173.54 755.10 171.96 753.27 170.16 C 753.46 171.04 753.63 171.93 753.84 172.82 C 752.68 176.86 752.30 181.95 748.22 184.27 C 750.46 180.59 750.99 176.25 750.56 172.03 C 750.56 180.94 744.59 189.26 736.37 192.53 C 724.48 197.83 709.85 194.14 700.94 184.93 C 702.02 188.47 704.11 191.74 706.94 194.13 C 708.75 195.72 711.09 196.59 712.84 198.26 C 713.32 198.35 714.29 198.52 714.77 198.61 C 716.58 198.94 718.39 199.32 720.19 199.76 C 717.59 199.63 715.00 199.39 712.43 199.09 C 712.15 199.23 711.59 199.52 711.31 199.66 C 711.38 199.24 711.51 198.38 711.58 197.96 C 704.73 195.37 699.72 189.54 696.58 183.09 C 696.38 186.16 695.38 189.38 692.51 190.93 C 693.44 189.12 694.35 187.31 695.23 185.47 C 694.23 186.02 692.24 187.14 691.25 187.69 C 692.27 186.24 693.30 184.78 694.15 183.21 C 694.30 182.06 694.46 180.91 694.64 179.76 C 693.70 180.95 692.51 182.06 692.47 183.69 L 691.48 183.43 L 691.47 184.32 C 689.89 184.81 688.50 185.69 687.13 186.58 C 686.62 183.79 687.00 180.43 689.81 178.98 C 687.62 177.75 685.16 177.63 682.76 178.25 C 682.91 176.92 683.16 175.61 683.51 174.31 C 685.63 174.33 688.01 173.96 689.75 175.52 C 688.70 173.45 688.34 171.14 688.47 168.83 C 690.75 170.49 692.47 172.73 693.91 175.13 C 692.89 165.99 694.89 156.51 700.26 148.96 C 699.41 149.11 697.69 149.41 696.84 149.56 C 702.21 148.29 705.46 143.32 710.69 141.71 M 705.59 149.55 C 705.63 150.21 705.69 151.51 705.73 152.17 C 705.33 151.61 704.53 150.51 704.13 149.95 C 698.66 155.08 696.02 162.52 696.43 169.96 C 697.22 173.88 698.39 177.74 700.31 181.26 C 704.40 187.69 711.84 191.05 719.12 192.28 C 727.79 193.81 736.92 190.22 742.78 183.79 C 747.50 178.49 748.60 170.90 747.28 164.12 C 747.18 163.56 746.98 162.45 746.88 161.90 C 745.80 159.74 745.55 156.97 743.58 155.39 C 742.95 154.19 742.34 153.00 741.74 151.80 C 741.40 152.36 740.71 153.47 740.36 154.03 C 740.29 153.25 740.14 151.69 740.06 150.92 C 739.62 151.16 738.72 151.65 738.27 151.90 C 737.63 149.14 734.09 151.62 732.66 149.64 C 732.40 149.89 731.89 150.39 731.63 150.65 C 730.28 148.75 727.78 148.74 725.77 148.10 C 725.47 149.10 725.19 150.09 724.92 151.10 C 724.86 150.54 724.74 149.44 724.68 148.88 C 722.17 148.26 719.65 147.71 717.15 147.12 C 717.25 147.83 717.45 149.24 717.56 149.95 C 716.98 149.10 716.43 148.24 715.81 147.45 C 712.44 148.35 709.11 149.70 705.59 149.55 M 698.17 182.21 C 698.71 182.78 698.71 182.78 698.17 182.21 M 699.35 184.44 C 699.89 185.02 699.89 185.02 699.35 184.44 Z" />
</g>
<g id="#6f3703ff">
<path fill="#6f3703" opacity="1.00" d=" M 532.22 141.24 C 532.21 140.87 532.17 140.15 532.15 139.78 C 533.68 140.22 536.30 140.99 536.75 142.60 C 535.19 143.13 533.66 141.68 532.22 141.24 Z" />
<path fill="#6f3703" opacity="1.00" d=" M 730.16 260.22 C 730.90 259.82 731.65 259.42 732.40 259.04 C 732.89 260.49 733.38 261.95 733.84 263.42 C 735.76 273.90 741.89 283.22 742.50 293.99 C 736.83 295.71 730.88 296.19 724.98 295.96 C 723.29 295.93 721.80 295.06 720.27 294.48 C 720.29 293.89 720.32 292.71 720.34 292.12 C 726.47 290.67 732.84 290.91 739.09 291.24 C 738.51 284.78 735.52 278.95 733.39 272.93 C 731.81 268.84 731.08 264.49 730.16 260.22 Z" />
</g>
<g id="#b63100ff">
<path fill="#b63100" opacity="1.00" d=" M 55.17 146.12 C 59.22 143.35 64.01 141.68 68.96 142.35 C 69.28 142.38 69.91 142.43 70.22 142.46 C 76.88 146.89 82.98 152.82 85.51 160.60 C 85.96 161.96 86.43 163.36 87.36 164.50 C 86.76 165.59 86.16 166.68 85.56 167.77 C 84.71 168.92 84.63 170.10 85.33 171.31 C 85.13 171.43 84.72 171.66 84.52 171.78 C 84.15 169.73 83.77 167.69 83.30 165.67 C 82.58 162.77 81.86 159.87 80.81 157.08 C 76.89 150.28 69.89 142.92 61.29 144.58 C 60.05 145.12 58.75 145.51 57.44 145.84 C 55.82 146.69 54.12 147.39 52.27 147.48 C 51.97 148.24 51.68 149.00 51.39 149.77 C 51.08 149.30 50.48 148.36 50.17 147.89 C 48.66 150.32 45.06 151.73 45.23 154.93 C 44.58 154.30 43.90 153.71 43.28 153.06 C 42.93 153.55 42.23 154.53 41.88 155.02 C 41.94 154.29 42.06 152.83 42.12 152.10 C 45.88 150.43 49.12 147.90 51.89 144.89 C 52.99 145.30 54.08 145.71 55.17 146.12 Z" />
</g>
<g id="#4c0000ff">
<path fill="#4c0000" opacity="1.00" d=" M 613.87 143.91 C 615.04 143.30 616.22 142.71 617.45 142.19 C 616.07 143.85 614.71 145.52 613.21 147.06 C 607.92 151.54 606.52 158.72 605.40 165.21 C 603.29 157.04 608.01 149.20 613.87 143.91 Z" />
<path fill="#4c0000" opacity="1.00" d=" M 612.14 148.92 C 614.89 147.94 616.86 145.45 619.87 145.05 C 615.67 149.16 611.98 154.12 610.87 160.02 C 609.30 167.48 612.74 175.02 617.53 180.60 C 623.16 186.81 631.74 189.67 639.97 189.76 C 648.31 189.73 655.52 184.08 660.05 177.46 C 660.18 178.23 660.45 179.76 660.58 180.53 L 660.41 181.37 L 659.67 181.79 L 659.85 181.69 C 658.87 182.75 657.90 183.82 656.93 184.89 C 656.26 184.87 654.93 184.83 654.26 184.81 C 653.17 186.26 652.05 187.68 650.75 188.93 C 636.49 194.95 617.81 189.67 610.19 175.81 C 605.26 167.48 606.90 156.86 611.97 149.00 L 612.14 148.92 Z" />
</g>
<g id="#005447ff">
<path fill="#005447" opacity="1.00" d=" M 435.83 143.72 C 444.59 141.63 454.51 142.63 461.89 148.11 C 463.63 149.58 466.01 149.69 468.09 150.42 C 467.31 150.35 465.76 150.20 464.99 150.12 L 465.92 151.79 C 465.47 151.99 464.56 152.38 464.11 152.58 C 466.21 155.41 468.87 157.99 469.79 161.50 C 470.45 164.04 471.65 166.38 473.23 168.48 C 474.05 170.96 473.97 173.70 473.53 176.26 C 473.03 178.18 473.04 180.25 474.47 181.78 C 474.39 182.23 474.24 183.14 474.17 183.59 C 475.54 185.33 476.55 187.32 477.97 189.02 C 477.21 188.90 475.70 188.65 474.94 188.53 C 476.01 189.87 477.07 191.23 478.12 192.59 C 476.25 192.46 474.65 191.74 473.54 190.27 C 473.21 190.60 472.55 191.27 472.22 191.60 C 472.54 190.10 472.16 188.90 471.07 187.99 C 471.01 188.48 470.91 189.47 470.86 189.96 C 470.08 190.05 468.54 190.22 467.77 190.31 C 468.05 186.56 469.96 183.01 469.36 179.20 L 469.49 178.73 C 469.80 178.58 470.43 178.28 470.74 178.14 C 471.05 179.48 471.38 180.82 471.71 182.16 C 471.69 178.79 471.66 175.41 471.63 172.04 C 471.15 173.43 470.67 174.82 470.23 176.23 C 470.21 173.43 468.94 170.75 470.01 167.94 C 469.50 168.44 468.49 169.43 467.99 169.93 C 467.63 166.84 467.28 163.73 466.76 160.66 C 466.40 161.52 465.69 163.25 465.34 164.12 C 465.38 162.56 465.42 161.01 465.47 159.46 C 464.87 160.18 463.66 161.61 463.05 162.32 C 463.41 159.80 464.03 157.32 465.00 154.96 C 464.43 156.04 463.87 157.12 463.30 158.20 C 463.10 157.25 462.70 155.36 462.50 154.42 C 462.38 155.71 462.28 157.01 462.20 158.31 C 460.50 158.75 459.13 158.29 458.11 156.96 L 458.08 156.14 C 457.40 157.22 456.69 158.28 456.02 159.36 C 456.02 158.02 456.02 155.33 456.02 153.99 C 455.06 154.91 454.10 155.84 453.15 156.77 L 453.02 154.15 C 452.99 153.71 452.95 152.83 452.93 152.40 C 452.20 152.33 450.74 152.19 450.01 152.13 C 448.68 152.00 447.85 152.64 447.52 154.07 C 446.70 152.91 445.87 151.76 445.04 150.62 C 444.51 151.13 443.45 152.14 442.93 152.65 C 442.41 152.46 441.38 152.09 440.86 151.90 C 440.45 152.53 440.04 153.16 439.63 153.80 C 439.52 153.23 439.30 152.11 439.19 151.54 C 437.30 152.54 435.47 153.63 433.56 154.57 C 433.12 154.42 432.24 154.11 431.80 153.96 C 431.75 154.41 431.66 155.30 431.62 155.75 C 430.97 155.61 429.67 155.32 429.02 155.18 C 428.40 154.42 427.80 153.64 427.22 152.86 C 427.09 153.46 426.82 154.66 426.69 155.26 C 426.36 154.77 425.71 153.79 425.38 153.30 C 424.07 154.73 422.81 156.28 422.56 158.27 C 422.06 159.68 421.49 161.07 420.82 162.42 C 420.50 162.54 419.86 162.79 419.54 162.91 C 418.68 165.03 417.82 167.16 416.68 169.15 C 417.21 172.26 417.70 175.39 417.71 178.56 C 414.90 180.35 414.73 183.61 415.98 186.44 C 415.63 188.45 415.85 190.44 417.08 192.12 C 416.87 193.20 416.64 194.28 416.46 195.37 C 416.48 194.44 416.51 192.56 416.53 191.63 C 416.03 191.76 415.03 192.02 414.53 192.16 L 415.95 191.34 L 415.07 189.34 C 415.20 188.57 415.46 187.04 415.58 186.27 C 413.26 185.56 413.22 188.24 412.20 189.46 C 411.47 191.18 409.69 191.89 408.12 192.64 C 409.54 190.80 410.99 189.00 412.41 187.16 C 410.84 187.78 409.25 188.32 407.63 188.76 C 409.44 187.28 411.19 185.70 412.51 183.74 C 410.82 184.50 409.13 185.24 407.42 185.95 C 408.62 184.84 410.01 183.96 411.42 183.15 L 411.43 181.52 C 409.97 181.43 408.52 181.34 407.08 181.25 C 409.15 179.78 411.19 178.25 412.71 176.16 L 408.73 177.80 C 410.30 176.11 412.36 174.73 413.32 172.56 C 414.05 170.09 413.88 167.37 415.17 165.06 C 415.95 163.53 416.57 161.92 417.00 160.26 C 417.88 157.64 419.99 155.64 420.91 153.01 C 422.82 151.72 424.56 150.21 426.14 148.53 C 425.06 148.11 423.99 147.70 422.92 147.30 C 427.78 148.67 431.33 144.52 435.83 143.72 M 415.07 171.34 C 414.20 172.57 414.43 173.31 415.75 173.55 C 416.62 172.31 416.39 171.58 415.07 171.34 M 415.10 175.24 C 413.50 178.23 418.37 175.52 415.10 175.24 M 410.32 180.89 C 412.00 181.62 413.68 179.46 413.19 177.90 C 412.02 178.17 410.39 179.67 410.32 180.89 Z" />
<path fill="#005447" opacity="1.00" d=" M 484.99 175.28 L 485.15 175.26 C 485.05 176.31 484.95 177.36 484.85 178.42 C 482.54 177.75 480.31 178.60 478.21 179.55 C 477.87 179.31 477.18 178.82 476.84 178.57 C 478.77 175.98 482.07 175.83 484.99 175.28 Z" />
</g>
<g id="#b1ab89ff">
<path fill="#b1ab89" opacity="1.00" d=" M 533.38 143.15 C 533.91 143.74 533.91 143.74 533.38 143.15 Z" />
</g>
<g id="#fbfaf5ff">
<path fill="#fbfaf5" opacity="1.00" d=" M 655.69 187.54 C 657.66 187.43 659.63 187.28 661.61 187.32 L 662.27 187.94 C 660.52 188.10 658.78 188.31 657.04 188.52 C 656.70 188.76 656.02 189.24 655.68 189.47 L 655.40 189.63 C 655.47 188.93 655.57 188.23 655.69 187.54 Z" />
<path fill="#fbfaf5" opacity="1.00" d=" M 253.06 216.08 C 251.53 214.42 250.82 211.99 251.75 209.85 C 253.00 211.67 253.70 213.89 253.06 216.08 Z" />
<path fill="#fbfaf5" opacity="1.00" d=" M 636.10 262.22 C 636.34 262.53 636.81 263.16 637.05 263.47 C 635.96 264.63 634.87 265.79 633.86 267.02 C 634.30 265.28 635.07 263.68 636.10 262.22 Z" />
</g>
<g id="#c0a476ff">
<path fill="#c0a476" opacity="1.00" d=" M 541.54 143.87 C 541.96 144.79 542.40 145.70 542.81 146.63 C 542.14 148.21 541.43 149.76 540.70 151.31 C 539.77 151.52 538.82 151.72 537.90 151.94 C 538.65 150.55 538.42 148.23 539.92 147.45 L 541.09 146.93 C 541.20 146.17 541.43 144.64 541.54 143.87 Z" />
</g>
<g id="#000000ff">
<path fill="#000000" opacity="1.00" d=" M 220.32 147.55 C 223.62 148.74 226.79 150.30 229.85 152.04 C 230.07 150.89 229.90 149.35 231.25 148.85 C 231.65 152.82 236.25 152.73 239.17 153.54 C 232.03 153.56 224.36 154.15 218.47 158.62 C 214.67 161.52 210.82 164.81 208.44 168.96 L 206.91 169.15 C 207.27 169.51 207.97 170.23 208.33 170.59 C 207.12 171.32 205.92 172.07 204.74 172.84 C 205.62 172.94 207.37 173.14 208.25 173.23 C 206.52 174.46 204.77 175.66 203.07 176.91 C 204.49 177.49 205.93 178.01 207.39 178.50 C 207.03 180.90 207.62 183.25 208.18 185.56 C 208.65 185.92 209.60 186.62 210.07 186.97 C 208.91 186.45 207.77 185.90 206.64 185.34 C 202.81 186.63 204.09 192.91 208.08 192.59 C 208.57 192.31 209.55 191.74 210.04 191.46 C 213.68 198.63 220.85 203.90 228.87 204.88 C 238.18 205.86 247.66 201.82 254.04 195.10 C 256.79 191.82 260.15 187.69 259.24 183.16 C 260.55 182.89 261.86 182.59 263.16 182.25 C 263.24 181.45 263.40 179.83 263.48 179.03 C 263.09 176.60 260.14 177.13 258.39 176.95 C 259.12 173.30 257.03 169.76 255.52 166.55 C 253.04 161.75 248.52 158.67 243.86 156.26 C 246.74 157.03 249.71 157.97 251.94 160.06 C 254.50 162.42 256.36 165.91 260.15 166.42 C 259.61 166.66 258.53 167.14 257.99 167.38 C 259.78 168.96 261.91 170.08 263.76 171.60 C 262.28 171.55 260.80 171.50 259.34 171.44 C 259.71 172.83 260.10 174.22 260.49 175.61 C 262.59 175.37 264.64 176.62 264.82 178.85 C 265.72 181.46 263.43 183.18 261.32 184.00 C 258.19 198.65 242.58 208.61 228.01 207.47 C 219.43 206.69 210.68 202.47 206.06 194.96 C 202.41 189.02 202.04 181.65 203.20 174.93 C 204.39 168.51 208.54 163.08 213.45 158.98 C 210.89 158.74 208.31 158.79 205.75 158.89 C 209.38 155.54 214.35 154.33 219.20 154.69 C 215.67 152.60 211.80 151.18 207.77 150.46 C 213.93 149.19 220.38 150.37 225.85 153.41 C 224.70 150.87 222.42 149.24 220.32 147.55 Z" />
<path fill="#000000" opacity="1.00" d=" M 282.33 251.25 C 283.01 251.17 284.39 251.01 285.08 250.94 C 284.35 260.48 279.36 268.92 277.75 278.24 C 278.50 278.25 280.01 278.27 280.76 278.28 C 284.08 278.49 287.41 278.61 290.72 278.95 C 291.45 279.08 292.92 279.33 293.65 279.45 C 293.63 279.93 293.60 280.88 293.59 281.36 C 287.63 283.64 280.75 282.29 274.86 280.27 C 275.90 270.21 281.57 261.36 282.33 251.25 Z" />
</g>
<g id="#f8e37cff">
<path fill="#f8e37c" opacity="1.00" d=" M 354.29 147.36 C 356.01 146.49 358.01 146.59 359.82 147.13 C 360.98 150.17 353.45 150.06 354.29 147.36 Z" />
</g>
<g id="#ffe09eff">
<path fill="#ffe09e" opacity="1.00" d=" M 619.39 154.62 C 617.16 148.11 629.07 143.72 630.57 150.93 C 629.69 152.82 629.59 155.74 627.11 156.26 C 624.48 156.73 621.55 156.23 619.39 154.62 Z" />
<path fill="#ffe09e" opacity="1.00" d=" M 537.45 161.69 C 536.88 159.70 539.81 160.10 540.99 160.37 C 543.90 161.75 548.32 163.93 546.96 167.91 C 542.86 167.83 539.23 165.33 537.45 161.69 Z" />
</g>
<g id="#01248dff">
<path fill="#01248d" opacity="1.00" d=" M 373.73 149.85 C 374.73 147.28 378.28 147.89 380.40 148.57 C 380.95 149.75 381.27 150.99 381.36 152.29 C 378.83 152.41 374.66 152.82 373.73 149.85 Z" />
</g>
<g id="#492e3dff">
<path fill="#492e3d" opacity="1.00" d=" M 68.23 155.41 C 68.90 151.13 76.48 151.36 75.81 155.86 C 73.42 157.19 70.61 156.25 68.23 155.41 Z" />
</g>
<g id="#93b4aeff">
<path fill="#93b4ae" opacity="1.00" d=" M 450.01 152.13 C 450.74 152.19 452.20 152.33 452.93 152.40 C 452.95 152.83 452.99 153.71 453.02 154.15 C 452.04 155.19 451.08 156.24 450.12 157.29 C 450.09 155.57 450.05 153.85 450.01 152.13 Z" />
</g>
<g id="#000201ff">
<path fill="#000201" opacity="1.00" d=" M 464.11 152.58 C 464.56 152.38 465.47 151.99 465.92 151.79 C 470.00 156.42 472.44 162.39 473.23 168.48 C 471.65 166.38 470.45 164.04 469.79 161.50 C 468.87 157.99 466.21 155.41 464.11 152.58 Z" />
<path fill="#000201" opacity="1.00" d=" M 422.56 158.27 C 422.81 156.28 424.07 154.73 425.38 153.30 C 425.71 153.79 426.36 154.77 426.69 155.26 C 426.82 154.66 427.09 153.46 427.22 152.86 C 427.80 153.64 428.40 154.42 429.02 155.18 C 427.87 155.28 427.02 155.84 426.45 156.85 C 426.20 156.62 425.71 156.17 425.47 155.94 C 424.59 156.84 423.57 157.55 422.56 158.27 Z" />
<path fill="#000201" opacity="1.00" d=" M 472.92 191.76 C 474.60 193.61 475.58 195.98 476.98 198.06 C 475.34 196.15 473.88 194.08 472.92 191.76 Z" />
<path fill="#000201" opacity="1.00" d=" M 247.50 209.55 C 248.69 207.59 249.28 204.45 251.87 203.97 C 252.10 204.57 252.55 205.75 252.77 206.35 L 253.46 204.99 C 252.76 206.57 252.24 208.21 251.75 209.85 C 250.82 211.99 251.53 214.42 253.06 216.08 C 254.15 219.17 255.10 222.31 256.17 225.41 C 253.95 223.52 251.94 221.40 250.16 219.10 C 252.57 228.88 253.07 239.13 250.71 248.99 C 252.25 249.80 253.87 250.45 255.59 250.80 C 255.52 251.23 255.39 252.08 255.33 252.51 C 253.93 252.07 252.52 251.58 251.15 251.09 C 251.01 252.61 251.95 256.16 249.41 255.92 C 249.54 254.35 249.65 252.78 249.74 251.22 C 248.23 252.16 247.10 253.94 245.11 253.75 C 246.32 251.08 249.32 249.29 249.16 246.09 C 249.77 239.10 250.96 231.88 248.96 225.00 C 247.66 220.01 244.99 214.61 247.50 209.55 Z" />
</g>
<g id="#008c3cff">
<path fill="#008c3c" opacity="1.00" d=" M 508.48 152.75 C 509.52 152.74 510.79 152.44 511.67 153.16 C 512.55 156.37 507.99 157.93 505.47 157.65 C 504.05 155.56 506.13 152.78 508.48 152.75 Z" />
</g>
<g id="#963808ff">
<path fill="#963808" opacity="1.00" d=" M 85.51 160.60 C 86.10 158.09 85.78 155.10 87.18 152.91 C 89.29 153.47 89.30 156.36 89.51 158.15 C 89.54 159.24 89.54 160.34 89.53 161.43 C 89.84 161.47 90.47 161.55 90.78 161.59 C 94.23 161.41 96.61 163.92 98.03 166.75 C 94.35 167.42 90.48 166.54 87.36 164.50 C 86.43 163.36 85.96 161.96 85.51 160.60 Z" />
</g>
<g id="#00226aff">
<path fill="#00226a" opacity="1.00" d=" M 634.46 153.61 C 636.13 152.45 639.30 153.85 639.03 155.99 C 637.42 157.11 633.72 155.90 634.46 153.61 Z" />
<path fill="#00226a" opacity="1.00" d=" M 645.33 160.85 C 648.05 159.81 650.23 163.58 647.93 165.38 C 646.00 164.71 645.90 162.49 645.33 160.85 Z" />
<path fill="#00226a" opacity="1.00" d=" M 150.81 200.24 C 152.91 199.29 155.13 197.76 157.55 198.36 C 157.90 200.72 154.52 200.87 153.13 202.15 C 152.36 201.51 151.58 200.88 150.81 200.24 Z" />
<path fill="#00226a" opacity="1.00" d=" M 156.98 260.52 C 157.84 261.07 158.72 261.59 159.62 262.08 C 159.97 268.28 160.32 274.51 159.18 280.66 C 153.98 281.16 148.82 279.96 143.89 278.43 C 142.57 277.75 139.97 276.33 141.37 274.58 C 143.16 274.42 144.95 274.65 146.73 274.79 L 146.65 275.02 C 146.46 275.57 146.08 276.66 145.88 277.20 C 147.53 278.02 149.12 279.22 151.04 279.27 C 153.07 278.82 155.02 278.09 157.01 277.51 C 158.07 271.89 157.23 266.17 156.98 260.52 Z" />
</g>
<g id="#001e85ff">
<path fill="#001e85" opacity="1.00" d=" M 335.25 159.90 C 333.42 155.96 339.05 152.14 341.86 155.31 C 341.02 158.08 337.97 159.63 335.25 159.90 Z" />
</g>
<g id="#ffe0a1ff">
<path fill="#ffe0a1" opacity="1.00" d=" M 378.29 154.24 C 381.08 152.45 383.70 155.31 385.72 156.94 C 385.81 157.36 385.97 158.19 386.06 158.61 C 385.07 161.05 384.95 165.01 381.89 165.73 C 376.78 165.59 373.04 156.95 378.29 154.24 Z" />
<path fill="#ffe0a1" opacity="1.00" d=" M 648.21 168.26 C 650.04 167.02 652.82 167.10 654.30 168.87 C 655.39 171.68 654.87 174.92 653.33 177.46 C 652.69 179.55 650.24 178.47 648.66 178.55 C 646.77 175.43 645.99 171.43 648.21 168.26 Z" />
</g>
<g id="#008e3bff">
<path fill="#008e3b" opacity="1.00" d=" M 536.36 155.52 C 536.65 152.87 540.53 153.93 542.26 154.69 C 542.69 155.93 543.14 157.18 543.59 158.42 C 540.81 159.85 537.97 157.70 536.36 155.52 Z" />
</g>
<g id="#ff7c00ff">
<path fill="#ff7c00" opacity="1.00" d=" M 49.99 157.99 C 50.08 155.22 52.81 154.86 54.99 155.47 C 53.59 156.76 51.70 157.26 49.99 157.99 Z" />
<path fill="#ff7c00" opacity="1.00" d=" M 638.74 159.26 C 640.12 160.24 641.50 161.22 642.86 162.25 C 641.26 162.74 639.86 161.83 638.49 161.14 C 638.55 160.67 638.68 159.73 638.74 159.26 Z" />
<path fill="#ff7c00" opacity="1.00" d=" M 622.40 159.67 C 623.22 164.53 622.97 170.44 627.30 173.77 C 631.46 177.38 637.25 175.60 642.19 176.62 C 636.87 178.11 630.30 179.28 625.80 175.26 C 621.24 171.54 621.18 164.95 622.40 159.67 Z" />
<path fill="#ff7c00" opacity="1.00" d=" M 699.76 251.39 C 699.97 250.82 700.39 249.68 700.60 249.10 L 701.46 249.67 C 703.55 251.41 706.36 251.45 708.93 251.73 C 721.31 252.94 733.95 253.14 746.14 250.33 C 746.87 257.06 741.12 264.97 733.84 263.42 C 733.38 261.95 732.89 260.49 732.40 259.04 C 731.65 259.42 730.90 259.82 730.16 260.22 C 728.17 261.19 726.34 263.10 723.94 262.52 C 721.52 261.46 719.95 258.30 717.01 258.72 C 713.58 259.57 710.56 262.68 706.83 261.26 C 706.46 259.77 706.07 258.27 705.31 256.94 C 704.02 258.17 702.52 258.66 700.81 258.39 C 699.79 257.31 699.63 255.83 699.57 254.43 L 698.70 254.71 C 699.05 253.61 699.41 252.50 699.76 251.39 Z" />
</g>
<g id="#de2f00ff">
<path fill="#de2f00" opacity="1.00" d=" M 89.51 158.15 C 90.85 156.84 92.15 155.36 93.96 154.71 C 95.75 154.31 96.50 156.11 96.96 157.42 C 94.73 158.33 92.76 159.73 91.30 161.65 L 90.78 161.59 C 90.47 161.55 89.84 161.47 89.53 161.43 C 89.54 160.34 89.54 159.24 89.51 158.15 Z" />
</g>
<g id="#020202ff">
<path fill="#020202" opacity="1.00" d=" M 238.28 155.38 C 239.72 155.04 241.18 155.42 242.61 155.59 C 240.80 156.55 238.98 157.65 238.49 159.80 C 238.02 159.65 237.09 159.36 236.62 159.22 C 236.74 157.79 237.00 156.25 238.28 155.38 Z" />
<path fill="#020202" opacity="1.00" d=" M 408.83 155.31 C 410.80 154.86 412.99 153.86 414.85 155.23 C 416.21 156.53 416.51 158.51 417.00 160.26 C 416.57 161.92 415.95 163.53 415.17 165.06 C 412.46 168.38 408.40 170.54 404.02 169.68 C 403.83 167.73 404.99 166.28 406.25 164.93 C 404.27 164.86 402.21 165.25 400.32 164.55 C 398.77 162.66 400.24 159.08 402.91 159.55 C 406.19 159.95 409.40 160.79 412.66 161.32 C 409.59 162.15 406.41 162.10 403.27 162.19 C 405.57 164.36 409.10 164.36 411.18 166.87 C 412.55 165.37 414.53 163.99 414.47 161.72 C 414.51 161.45 414.59 160.92 414.63 160.65 C 412.22 159.48 410.10 157.70 408.83 155.31 Z" />
<path fill="#020202" opacity="1.00" d=" M 471.63 172.04 C 471.66 175.41 471.69 178.79 471.71 182.16 C 471.38 180.82 471.05 179.48 470.74 178.14 C 470.43 178.28 469.80 178.58 469.49 178.73 C 469.72 177.89 469.97 177.05 470.23 176.23 C 470.67 174.82 471.15 173.43 471.63 172.04 Z" />
<path fill="#020202" opacity="1.00" d=" M 226.34 179.65 C 224.78 177.63 228.53 175.28 229.48 177.62 C 228.68 178.64 227.45 179.08 226.34 179.65 Z" />
</g>
<g id="#c2a77aff">
<path fill="#c2a77a" opacity="1.00" d=" M 519.69 158.13 C 521.10 155.04 527.03 154.83 528.28 158.13 C 525.51 156.71 522.50 157.01 519.69 158.13 Z" />
</g>
<g id="#ba3608ff">
<path fill="#ba3608" opacity="1.00" d=" M 32.35 157.01 C 33.96 158.04 35.57 159.07 37.20 160.07 C 35.10 160.85 33.77 162.73 32.59 164.53 C 30.57 167.26 31.63 170.85 31.60 173.98 C 31.30 175.03 30.98 176.07 30.64 177.10 C 29.95 178.36 29.19 179.57 28.45 180.81 C 27.81 178.89 27.23 176.92 27.30 174.88 C 27.30 174.29 27.29 173.12 27.29 172.53 C 30.80 169.61 29.32 164.54 30.42 160.59 C 31.16 160.57 31.90 160.55 32.65 160.53 C 32.55 159.36 32.45 158.18 32.35 157.01 Z" />
</g>
<g id="#f3ecc5ff">
<path fill="#f3ecc5" opacity="1.00" d=" M 74.04 160.23 C 74.90 157.32 78.46 157.67 80.81 157.08 C 81.86 159.87 82.58 162.77 83.30 165.67 C 82.09 167.07 81.06 169.78 78.79 168.39 C 76.12 166.74 73.34 163.58 74.04 160.23 Z" />
</g>
<g id="#7ea7a1ff">
<path fill="#7ea7a1" opacity="1.00" d=" M 457.69 161.22 C 457.83 159.79 458.02 158.38 458.11 156.96 C 459.13 158.29 460.50 158.75 462.20 158.31 C 462.11 159.46 462.03 160.60 461.95 161.75 C 460.53 161.57 459.10 161.39 457.69 161.22 Z" />
</g>
<g id="#4c780aff">
<path fill="#4c780a" opacity="1.00" d=" M 730.47 157.58 C 733.36 156.37 737.63 156.57 737.80 160.53 C 735.25 161.48 730.00 161.45 730.47 157.58 Z" />
</g>
<g id="#498836ff">
<path fill="#498836" opacity="1.00" d=" M 165.57 158.48 C 168.36 157.86 170.85 159.10 172.70 161.14 C 171.15 163.70 167.89 162.84 165.46 162.50 C 165.12 161.16 165.24 159.80 165.57 158.48 Z" />
</g>
<g id="#4c883cff">
<path fill="#4c883c" opacity="1.00" d=" M 139.07 163.83 C 138.56 160.40 142.61 158.76 145.43 159.62 C 145.53 160.90 145.62 162.17 145.72 163.46 C 143.56 164.20 141.29 164.53 139.07 163.83 Z" />
</g>
<g id="#ffe1a0ff">
<path fill="#ffe1a0" opacity="1.00" d=" M 502.52 162.55 C 504.45 161.33 507.09 159.26 509.38 160.65 C 510.39 162.79 508.31 164.56 506.97 165.93 C 505.13 167.90 502.35 168.37 499.79 167.96 C 500.00 165.89 500.49 163.60 502.52 162.55 Z" />
</g>
<g id="#4a7805ff">
<path fill="#4a7805" opacity="1.00" d=" M 703.26 165.66 C 702.53 162.10 706.65 159.34 709.56 161.29 C 709.98 164.18 705.84 166.11 703.26 165.66 Z" />
</g>
<g id="#f4efddff">
<path fill="#f4efdd" opacity="1.00" d=" M 739.36 161.29 C 741.61 159.39 744.46 161.41 746.88 161.90 C 746.98 162.45 747.18 163.56 747.28 164.12 C 746.86 167.12 745.65 169.92 744.08 172.49 C 741.28 171.15 739.00 169.05 737.32 166.47 C 737.90 164.72 738.10 162.71 739.36 161.29 Z" />
<path fill="#f4efdd" opacity="1.00" d=" M 419.09 190.12 C 417.81 187.06 416.43 183.99 416.35 180.62 C 417.72 183.68 418.95 186.84 420.89 189.60 C 417.85 191.16 419.61 194.38 420.21 196.84 C 419.06 196.80 417.91 196.83 416.77 196.94 C 416.69 196.55 416.54 195.76 416.46 195.37 C 416.64 194.28 416.87 193.20 417.08 192.12 C 415.85 190.44 415.63 188.45 415.98 186.44 C 416.80 187.82 417.24 189.76 419.09 190.12 Z" />
</g>
<g id="#ffe19dff">
<path fill="#ffe19d" opacity="1.00" d=" M 335.24 161.01 C 339.24 159.38 341.94 164.61 341.07 168.03 C 340.58 170.18 339.31 173.60 336.45 172.62 C 332.91 170.04 330.61 163.72 335.24 161.01 Z" />
</g>
<g id="#f2ae55ff">
<path fill="#f2ae55" opacity="1.00" d=" M 717.50 163.11 C 718.27 160.52 722.33 160.16 723.22 162.82 C 721.32 163.09 719.40 163.21 717.50 163.11 Z" />
</g>
<g id="#07483aff">
<path fill="#07483a" opacity="1.00" d=" M 403.27 162.19 C 406.41 162.10 409.59 162.15 412.66 161.32 C 413.13 161.21 414.08 161.00 414.55 160.90 L 414.47 161.72 C 414.53 163.99 412.55 165.37 411.18 166.87 C 409.10 164.36 405.57 164.36 403.27 162.19 Z" />
</g>
<g id="#010101ff">
<path fill="#010101" opacity="1.00" d=" M 419.54 162.91 C 419.86 162.79 420.50 162.54 420.82 162.42 C 418.18 169.20 417.94 177.13 421.20 183.75 C 423.91 189.37 429.33 193.15 435.11 195.12 C 443.42 198.24 452.88 196.03 460.13 191.32 C 464.69 188.67 467.75 184.14 469.36 179.20 C 469.96 183.01 468.05 186.56 467.77 190.31 C 468.54 190.22 470.08 190.05 470.86 189.96 C 469.79 191.36 469.32 196.89 467.33 193.23 C 466.90 193.64 466.06 194.46 465.64 194.87 C 465.59 194.24 465.50 192.99 465.45 192.37 L 467.97 192.99 C 464.45 191.42 468.28 188.46 468.29 186.22 C 462.39 193.01 454.20 198.16 445.08 198.91 C 436.21 199.80 426.46 196.88 420.89 189.60 C 418.95 186.84 417.72 183.68 416.35 180.62 C 416.43 183.99 417.81 187.06 419.09 190.12 C 417.24 189.76 416.80 187.82 415.98 186.44 C 414.73 183.61 414.90 180.35 417.71 178.56 C 417.70 175.39 417.21 172.26 416.68 169.15 C 417.82 167.16 418.68 165.03 419.54 162.91 Z" />
<path fill="#010101" opacity="1.00" d=" M 459.39 210.22 C 459.49 210.60 459.71 211.38 459.82 211.77 C 464.97 215.00 471.10 215.97 476.85 217.65 C 479.64 218.79 482.25 216.80 484.99 216.42 C 484.94 218.68 482.36 218.59 480.95 219.52 C 482.62 220.45 484.81 220.49 486.06 222.07 C 484.12 222.54 482.20 222.01 480.41 221.25 C 480.13 222.61 481.48 225.72 478.92 225.59 C 478.95 223.65 479.03 221.69 478.54 219.80 C 471.80 219.18 465.26 217.08 459.22 214.08 C 459.32 212.79 459.38 211.50 459.39 210.22 Z" />
</g>
<g id="#4b603aff">
<path fill="#4b603a" opacity="1.00" d=" M 423.54 166.03 C 424.54 162.61 430.25 161.21 431.70 165.07 C 430.11 167.79 425.52 168.66 423.54 166.03 Z" />
</g>
<g id="#48673bff">
<path fill="#48673b" opacity="1.00" d=" M 456.31 163.37 C 458.66 162.03 463.54 164.46 462.39 167.37 C 460.37 168.23 457.72 168.49 455.97 166.94 C 455.53 165.70 455.65 164.51 456.31 163.37 Z" />
</g>
<g id="#f6ecc7ff">
<path fill="#f6ecc7" opacity="1.00" d=" M 169.99 164.96 C 172.55 163.93 175.45 165.07 178.14 164.39 C 178.11 164.81 178.05 165.64 178.02 166.06 C 178.50 167.14 179.01 168.21 179.55 169.27 C 178.35 169.87 177.17 170.48 175.96 171.03 C 174.62 171.46 173.27 171.89 171.94 172.34 C 169.84 170.53 168.39 167.58 169.99 164.96 Z" />
<path fill="#f6ecc7" opacity="1.00" d=" M 134.53 169.32 C 136.47 168.07 138.63 167.19 140.95 167.01 C 141.92 170.14 141.51 173.40 140.77 176.53 C 138.40 174.40 136.11 172.12 134.53 169.32 Z" />
</g>
<g id="#d15200ff">
<path fill="#d15200" opacity="1.00" d=" M 356.71 164.56 C 359.31 163.66 363.02 163.96 364.02 166.99 C 365.59 169.90 364.93 173.23 363.15 175.87 C 361.41 176.52 359.50 177.49 357.73 176.36 C 355.19 172.94 354.85 168.37 356.71 164.56 Z" />
</g>
<g id="#8d5800ff">
<path fill="#8d5800" opacity="1.00" d=" M 491.95 163.20 C 492.69 164.33 493.94 165.36 493.52 166.91 C 493.30 172.35 495.82 177.27 498.05 182.05 C 492.06 177.92 491.67 169.79 491.95 163.20 Z" />
<path fill="#8d5800" opacity="1.00" d=" M 512.42 197.28 C 515.71 194.83 519.84 193.83 523.88 193.60 C 524.16 193.87 524.72 194.40 525.01 194.67 C 524.26 195.06 523.53 195.47 522.80 195.88 C 520.47 197.45 516.00 198.40 516.45 201.95 C 517.25 215.93 516.70 230.03 513.91 243.78 C 526.45 244.02 538.70 241.03 550.88 238.45 C 553.11 238.43 555.35 238.40 557.59 238.34 C 558.16 240.93 558.12 243.60 557.51 246.17 C 556.70 246.66 555.90 247.15 555.11 247.65 C 554.82 246.69 554.55 245.72 554.29 244.76 C 547.72 243.00 540.90 244.40 534.96 247.43 C 530.91 244.54 525.54 244.84 520.94 245.99 C 520.62 246.24 519.98 246.74 519.66 247.00 L 518.87 247.67 C 516.22 247.53 513.57 247.61 510.95 247.30 C 508.72 246.13 509.94 243.71 510.41 241.90 C 514.24 229.02 511.86 215.50 512.23 202.32 C 502.79 205.96 492.85 208.84 482.63 208.56 C 481.54 210.72 482.91 214.53 480.11 215.35 C 480.06 213.62 480.08 211.90 480.13 210.19 C 478.23 210.56 476.30 210.73 474.38 210.69 L 474.34 209.34 C 476.31 209.03 478.28 208.59 480.14 207.81 C 478.43 206.73 475.70 206.33 475.58 203.84 C 478.81 204.31 481.43 207.23 484.83 206.37 C 491.16 205.33 497.64 204.77 503.75 202.70 C 507.06 201.64 509.68 199.31 512.42 197.28 Z" />
</g>
<g id="#522945ff">
<path fill="#522945" opacity="1.00" d=" M 32.25 170.09 C 33.45 167.22 36.03 165.06 39.32 165.69 C 39.71 169.03 35.06 173.62 32.25 170.09 Z" />
</g>
<g id="#91390bff">
<path fill="#91390b" opacity="1.00" d=" M 83.30 165.67 C 83.77 167.69 84.15 169.73 84.52 171.78 C 84.72 171.66 85.13 171.43 85.33 171.31 L 85.91 171.00 C 86.15 170.30 86.62 168.90 86.86 168.20 C 87.17 168.61 87.79 169.43 88.10 169.84 C 88.01 179.76 84.75 190.52 75.98 196.16 C 82.06 190.39 86.61 182.37 85.52 173.70 L 84.38 174.55 C 81.94 182.12 77.06 188.91 70.41 193.33 C 63.90 197.61 55.65 199.32 48.02 197.60 C 42.81 196.29 38.29 193.01 34.86 188.96 C 34.19 187.54 32.33 185.94 33.77 184.34 C 32.81 181.89 31.64 179.53 30.64 177.10 C 30.98 176.07 31.30 175.03 31.60 173.98 C 31.77 174.62 32.11 175.89 32.27 176.52 C 33.06 179.18 34.06 181.79 35.55 184.13 C 39.19 190.19 45.72 194.44 52.83 194.86 C 68.81 196.71 84.84 181.85 83.30 165.67 Z" />
</g>
<g id="#963606ff">
<path fill="#963606" opacity="1.00" d=" M 17.83 169.14 C 19.11 168.34 20.28 167.09 21.92 167.11 C 24.33 166.94 25.72 169.28 27.10 170.86 C 27.14 171.28 27.24 172.11 27.29 172.53 C 27.29 173.12 27.30 174.29 27.30 174.88 C 26.84 179.58 23.70 184.75 18.43 184.69 C 18.55 183.12 18.70 181.56 18.87 180.01 C 16.93 181.11 14.82 182.07 12.52 181.62 C 12.20 180.04 11.39 177.98 12.78 176.69 C 15.67 175.36 18.86 174.81 21.97 174.23 C 20.05 175.58 18.12 176.92 16.21 178.29 C 19.05 178.55 21.90 177.77 24.69 178.53 C 25.06 176.56 25.41 174.59 25.71 172.61 C 23.12 171.59 18.88 172.35 17.83 169.14 Z" />
</g>
<g id="#ff8742ff">
<path fill="#ff8742" opacity="1.00" d=" M 518.57 167.42 C 520.61 167.21 522.61 167.57 524.33 168.76 C 524.62 170.99 524.70 173.24 524.52 175.49 C 523.35 176.13 522.18 176.76 521.02 177.40 C 520.15 176.75 519.29 176.11 518.43 175.47 C 517.57 172.81 517.67 170.05 518.57 167.42 Z" />
</g>
<g id="#fc6800ff">
<path fill="#fc6800" opacity="1.00" d=" M 61.15 181.22 C 67.06 179.13 69.33 172.84 71.99 167.78 C 71.00 174.72 67.45 182.78 59.99 184.59 C 54.45 186.57 47.36 184.10 45.14 178.43 C 49.28 182.46 55.90 183.85 61.15 181.22 Z" />
</g>
<g id="#fd8479ff">
<path fill="#fd8479" opacity="1.00" d=" M 85.33 171.31 C 84.63 170.10 84.71 168.92 85.56 167.77 C 85.65 168.58 85.82 170.19 85.91 171.00 L 85.33 171.31 Z" />
</g>
<g id="#f5efdcff">
<path fill="#f5efdc" opacity="1.00" d=" M 696.43 169.96 C 698.55 169.06 700.73 168.32 702.96 167.70 C 704.10 169.93 705.87 172.28 705.02 174.94 C 704.75 177.80 702.28 179.52 700.31 181.26 C 698.39 177.74 697.22 173.88 696.43 169.96 Z" />
</g>
<g id="#f9c4b9ff">
<path fill="#f9c4b9" opacity="1.00" d=" M 93.68 169.12 C 96.18 168.67 93.41 171.72 92.36 171.82 C 91.93 171.55 91.08 171.01 90.65 170.74 C 91.57 170.03 92.58 169.50 93.68 169.12 Z" />
</g>
<g id="#ffc300ff">
<path fill="#ffc300" opacity="1.00" d=" M 152.28 171.02 C 153.96 168.73 156.81 168.60 159.16 169.88 C 159.28 170.22 159.53 170.91 159.66 171.25 C 157.20 171.09 154.74 171.06 152.28 171.02 Z" />
<path fill="#ffc300" opacity="1.00" d=" M 442.72 173.73 C 444.90 173.51 447.53 172.99 448.87 175.29 C 446.60 175.42 444.33 175.53 442.07 175.71 C 442.23 175.21 442.56 174.22 442.72 173.73 Z" />
<path fill="#ffc300" opacity="1.00" d=" M 739.43 200.78 C 744.03 200.45 748.64 203.35 750.38 207.62 C 750.05 208.13 749.38 209.15 749.05 209.66 C 747.57 212.05 745.27 209.54 744.03 208.27 C 742.79 207.55 741.47 206.97 740.18 206.37 C 739.27 206.01 737.74 205.17 738.44 203.98 C 738.75 202.90 739.08 201.84 739.43 200.78 Z" />
</g>
<g id="#f4ecc4ff">
<path fill="#f4ecc4" opacity="1.00" d=" M 420.89 169.97 C 422.11 168.51 424.16 169.43 425.79 169.29 C 426.27 170.70 427.14 172.15 426.62 173.69 C 426.42 175.73 424.19 176.39 422.81 177.50 C 419.92 176.18 419.89 172.55 420.89 169.97 Z" />
</g>
<g id="#030102ff">
<path fill="#030102" opacity="1.00" d=" M 473.53 176.26 C 475.15 173.98 476.15 170.80 478.94 169.70 C 479.10 171.84 478.87 173.96 478.03 175.95 C 480.05 174.56 482.78 173.81 484.99 175.28 C 482.07 175.83 478.77 175.98 476.84 178.57 C 477.18 178.82 477.87 179.31 478.21 179.55 C 481.23 180.89 481.89 184.23 481.95 187.18 C 479.09 185.96 476.30 184.38 474.47 181.78 C 473.04 180.25 473.03 178.18 473.53 176.26 Z" />
<path fill="#030102" opacity="1.00" d=" M 236.13 175.15 C 237.68 175.15 240.40 175.26 239.54 177.56 C 237.96 177.60 235.76 177.27 236.13 175.15 Z" />
</g>
<g id="#ff6a00ff">
<path fill="#ff6a00" opacity="1.00" d=" M 737.09 170.19 C 737.92 177.84 730.12 183.81 722.89 182.95 C 716.85 182.18 711.62 178.05 708.08 173.28 C 712.29 176.89 717.35 180.14 723.02 180.50 C 729.38 180.73 735.00 175.99 737.09 170.19 Z" />
</g>
<g id="#002e24ff">
<path fill="#002e24" opacity="1.00" d=" M 415.07 171.34 C 416.39 171.58 416.62 172.31 415.75 173.55 C 414.43 173.31 414.20 172.57 415.07 171.34 Z" />
</g>
<g id="#f3edc4ff">
<path fill="#f3edc4" opacity="1.00" d=" M 460.22 171.16 C 461.89 170.98 463.87 170.48 465.25 171.79 C 466.16 173.75 466.17 176.26 465.26 178.23 C 464.11 178.96 462.61 179.13 461.34 178.65 C 459.69 176.50 460.22 173.67 460.22 171.16 Z" />
</g>
<g id="#f4edc5ff">
<path fill="#f4edc5" opacity="1.00" d=" M 35.20 172.76 C 36.81 172.58 38.65 171.64 40.07 172.87 C 43.26 174.54 43.08 178.98 41.89 181.84 C 40.61 184.40 37.98 183.38 35.96 182.52 C 35.86 182.92 35.65 183.73 35.55 184.13 C 34.06 181.79 33.06 179.18 32.27 176.52 C 33.27 175.28 34.24 174.03 35.20 172.76 Z" />
</g>
<g id="#f03200ff">
<path fill="#f03200" opacity="1.00" d=" M 21.97 174.23 C 23.13 173.50 24.45 173.11 25.71 172.61 C 25.41 174.59 25.06 176.56 24.69 178.53 C 21.90 177.77 19.05 178.55 16.21 178.29 C 18.12 176.92 20.05 175.58 21.97 174.23 Z" />
</g>
<g id="#3c7c73ff">
<path fill="#3c7c73" opacity="1.00" d=" M 415.10 175.24 C 418.37 175.52 413.50 178.23 415.10 175.24 Z" />
</g>
<g id="#fae0a2ff">
<path fill="#fae0a2" opacity="1.00" d=" M 176.17 184.07 C 178.03 181.49 178.24 178.04 180.29 175.51 C 180.09 178.73 179.16 181.83 177.99 184.81 C 180.41 185.13 182.74 185.93 185.16 186.32 C 184.72 187.51 184.27 188.71 183.83 189.90 C 181.95 189.43 181.47 187.69 180.84 186.09 C 180.45 186.08 179.68 186.06 179.29 186.04 C 175.93 188.13 172.90 190.85 169.08 192.10 C 162.93 194.44 156.06 193.91 149.79 192.35 C 146.79 191.59 143.65 190.50 141.60 188.06 C 140.40 186.76 138.99 185.69 137.52 184.73 C 138.33 184.07 139.11 183.38 139.36 182.33 C 140.62 183.40 141.93 184.41 143.22 185.43 C 143.28 186.15 143.34 186.88 143.41 187.60 C 149.07 190.54 155.60 192.39 161.99 191.16 C 167.21 190.13 172.32 187.79 176.17 184.07 Z" />
</g>
<g id="#e33007ff">
<path fill="#e33007" opacity="1.00" d=" M 28.45 180.81 C 29.19 179.57 29.95 178.36 30.64 177.10 C 31.64 179.53 32.81 181.89 33.77 184.34 C 32.33 185.94 34.19 187.54 34.86 188.96 C 36.76 192.21 39.54 194.82 42.39 197.23 C 37.48 197.06 35.33 192.11 31.43 190.42 C 31.77 189.11 31.40 188.26 30.32 187.86 C 30.19 188.64 29.92 190.20 29.79 190.98 L 28.27 190.45 L 29.51 188.33 C 28.90 188.44 27.67 188.68 27.06 188.79 C 28.55 186.38 29.33 183.57 28.45 180.81 Z" />
</g>
<g id="#db3236ff">
<path fill="#db3236" opacity="1.00" d=" M 153.45 178.82 C 154.10 178.49 155.38 177.85 156.02 177.52 C 160.67 178.41 162.28 184.39 159.98 188.11 C 155.92 187.36 152.74 182.91 153.45 178.82 Z" />
</g>
<g id="#d6f1f0ff">
<path fill="#d6f1f0" opacity="1.00" d=" M 410.32 180.89 C 410.39 179.67 412.02 178.17 413.19 177.90 C 413.68 179.46 412.00 181.62 410.32 180.89 Z" />
</g>
<g id="#ffc047ff">
<path fill="#ffc047" opacity="1.00" d=" M 232.18 182.36 C 233.36 180.07 235.85 179.52 238.22 179.72 C 238.35 180.18 238.60 181.11 238.73 181.57 C 236.67 182.56 234.39 182.48 232.18 182.36 Z" />
</g>
<g id="#e53c5bff">
<path fill="#e53c5b" opacity="1.00" d=" M 660.41 181.37 C 662.50 180.20 664.68 179.04 667.16 179.20 C 666.19 180.86 664.60 182.17 663.96 184.00 C 664.94 184.94 666.45 185.11 667.68 185.70 C 667.70 187.04 667.56 188.39 667.13 189.67 C 665.10 191.13 663.60 189.30 662.27 187.94 L 661.61 187.32 C 659.63 187.28 657.66 187.43 655.69 187.54 C 655.57 188.23 655.47 188.93 655.40 189.63 L 655.68 189.47 C 655.96 190.03 656.51 191.14 656.79 191.69 C 658.29 193.85 660.75 194.89 663.19 195.58 C 660.32 196.09 657.21 197.24 654.55 195.42 C 653.81 196.25 652.90 196.87 651.84 197.21 C 651.00 194.53 650.55 191.74 650.75 188.93 C 652.05 187.68 653.17 186.26 654.26 184.81 C 654.93 184.83 656.26 184.87 656.93 184.89 C 657.90 183.82 658.87 182.75 659.85 181.69 L 659.67 181.79 L 660.41 181.37 Z" />
</g>
<g id="#bd9363ff">
<path fill="#bd9363" opacity="1.00" d=" M 698.17 182.21 C 698.71 182.78 698.71 182.78 698.17 182.21 Z" />
</g>
<g id="#de3137ff">
<path fill="#de3137" opacity="1.00" d=" M 441.46 192.84 C 439.92 189.23 440.80 183.88 444.92 182.53 C 447.34 181.76 449.19 184.34 448.37 186.51 C 447.45 189.56 445.05 193.10 441.46 192.84 Z" />
</g>
<g id="#ff8606ff">
<path fill="#ff8606" opacity="1.00" d=" M 239.09 192.39 C 243.39 190.89 245.98 187.01 248.98 183.87 C 247.44 190.29 241.63 195.77 234.95 196.28 C 230.89 196.51 227.33 194.31 223.95 192.39 C 228.87 193.70 234.26 194.56 239.09 192.39 Z" />
</g>
<g id="#bc9c83ff">
<path fill="#bc9c83" opacity="1.00" d=" M 699.35 184.44 C 699.89 185.02 699.89 185.02 699.35 184.44 Z" />
</g>
<g id="#b6e8ffff">
<path fill="#b6e8ff" opacity="1.00" d=" M 598.51 192.60 C 601.21 187.89 607.29 187.72 612.08 187.62 C 617.33 187.93 623.50 188.59 627.12 192.89 C 630.40 196.51 630.73 201.65 630.38 206.30 C 628.63 206.13 626.88 205.97 625.17 205.65 C 626.59 202.97 627.71 199.28 624.94 197.06 C 622.16 195.58 620.09 193.29 618.18 190.85 C 615.39 188.89 611.43 189.06 608.42 190.44 C 607.10 192.35 607.69 194.78 607.54 196.94 C 607.63 199.53 606.26 201.82 605.22 204.09 C 602.88 209.04 600.38 213.91 598.39 219.02 C 596.75 221.40 597.29 224.60 599.70 226.26 C 603.46 228.24 608.11 227.38 611.25 224.63 C 611.70 224.61 612.61 224.57 613.07 224.55 C 612.83 227.53 611.17 231.64 614.32 233.68 C 615.92 235.10 619.12 235.49 620.22 233.26 C 621.04 231.37 621.38 229.32 621.90 227.34 C 624.29 226.93 626.56 225.94 627.89 223.81 C 626.51 229.20 625.12 234.65 622.67 239.67 C 621.28 242.58 618.39 245.15 614.96 244.69 C 612.89 244.71 611.58 242.93 610.16 241.73 C 607.72 242.37 604.74 243.23 602.55 241.48 C 600.93 240.10 601.74 237.94 601.79 236.15 C 599.26 239.30 592.55 239.79 591.70 234.99 C 594.70 221.75 599.44 208.80 606.04 196.91 C 603.00 196.69 600.27 195.07 598.51 192.60 Z" />
</g>
<g id="#020201ff">
<path fill="#020201" opacity="1.00" d=" M 657.04 188.52 C 658.78 188.31 660.52 188.10 662.27 187.94 C 663.60 189.30 665.10 191.13 667.13 189.67 C 668.05 191.43 667.04 192.77 665.78 193.87 C 663.54 190.95 659.71 190.99 656.41 190.60 L 656.79 191.69 C 656.51 191.14 655.96 190.03 655.68 189.47 C 656.02 189.24 656.70 188.76 657.04 188.52 Z" />
</g>
<g id="#89dbffff">
<path fill="#89dbff" opacity="1.00" d=" M 608.42 190.44 C 611.43 189.06 615.39 188.89 618.18 190.85 C 620.09 193.29 622.16 195.58 624.94 197.06 C 627.71 199.28 626.59 202.97 625.17 205.65 C 620.08 203.15 614.05 203.11 608.49 203.13 C 608.01 208.40 605.15 212.99 601.91 217.02 C 601.02 218.09 599.55 218.39 598.39 219.02 C 600.38 213.91 602.88 209.04 605.22 204.09 C 606.26 201.82 607.63 199.53 607.54 196.94 C 607.69 194.78 607.10 192.35 608.42 190.44 Z" />
</g>
<g id="#4d0000ff">
<path fill="#4d0000" opacity="1.00" d=" M 569.64 189.60 C 572.56 191.49 574.05 195.59 578.01 196.09 C 584.97 197.23 591.89 194.47 598.51 192.60 C 600.27 195.07 603.00 196.69 606.04 196.91 C 599.44 208.80 594.70 221.75 591.70 234.99 C 592.55 239.79 599.26 239.30 601.79 236.15 C 601.74 237.94 600.93 240.10 602.55 241.48 C 604.74 243.23 607.72 242.37 610.16 241.73 C 611.58 242.93 612.89 244.71 614.96 244.69 C 618.39 245.15 621.28 242.58 622.67 239.67 C 625.12 234.65 626.51 229.20 627.89 223.81 C 629.19 218.06 629.93 212.18 630.38 206.30 C 630.73 201.65 630.40 196.51 627.12 192.89 C 630.42 194.68 634.08 195.81 637.12 198.10 C 636.73 199.40 636.40 200.72 636.14 202.06 C 637.51 202.88 638.91 203.70 640.22 204.65 C 639.62 204.46 638.44 204.08 637.84 203.89 C 636.08 211.47 634.80 219.18 634.56 226.98 C 634.23 225.05 633.82 223.14 633.32 221.25 C 632.78 228.55 631.93 236.44 635.20 243.27 C 633.67 246.98 630.04 249.31 626.16 249.87 C 621.78 250.39 617.38 249.66 613.06 249.01 C 611.54 251.11 610.13 253.29 608.89 255.56 C 617.20 254.28 625.74 254.90 633.95 252.86 C 635.88 252.32 637.96 252.70 639.61 253.82 C 638.57 255.88 637.52 257.93 636.46 259.97 C 639.64 259.65 642.81 258.10 646.02 259.14 C 647.55 259.88 646.22 261.65 645.81 262.69 C 643.06 267.62 641.10 273.00 640.63 278.66 C 640.06 278.67 638.93 278.68 638.37 278.69 C 638.17 277.02 638.07 275.35 638.10 273.68 C 641.01 271.27 640.10 267.41 639.83 264.13 C 639.13 263.97 637.74 263.64 637.05 263.47 C 636.81 263.16 636.34 262.53 636.10 262.22 C 635.07 263.68 634.30 265.28 633.86 267.02 L 633.72 267.68 C 633.40 269.24 633.34 270.83 633.21 272.41 C 630.50 273.14 630.12 270.62 630.62 268.49 C 629.74 266.85 629.02 265.13 628.36 263.40 C 619.53 264.58 609.19 263.53 602.23 270.18 C 601.06 272.03 599.03 270.51 598.40 269.04 C 597.32 266.37 598.55 263.51 598.80 260.81 C 596.94 262.09 595.21 263.54 593.66 265.18 C 591.34 264.56 590.18 262.28 590.46 259.98 C 590.96 254.36 593.72 249.29 596.06 244.26 C 590.92 242.07 584.80 240.14 582.01 234.87 C 579.73 229.63 582.70 224.09 585.84 219.94 C 589.44 214.77 595.02 211.09 597.45 205.12 C 598.65 202.12 600.47 199.20 600.87 195.98 C 596.63 195.23 592.54 197.53 588.39 198.19 C 583.67 199.37 578.64 199.11 574.19 197.08 C 572.85 198.34 571.51 199.67 569.71 200.23 C 569.95 199.36 570.43 197.62 570.67 196.75 C 569.44 196.34 567.30 196.98 567.21 195.13 C 568.30 194.52 569.51 194.31 570.82 194.49 C 569.76 193.00 569.37 191.38 569.64 189.60 M 593.24 218.71 C 593.25 217.89 593.27 216.25 593.28 215.42 C 591.05 219.20 587.97 222.50 583.77 224.03 C 583.72 224.65 583.61 225.90 583.55 226.53 C 588.68 227.23 589.63 220.99 593.07 218.82 C 590.92 222.95 587.93 226.98 583.34 228.52 C 582.83 230.16 582.93 231.78 584.01 233.18 C 587.70 232.77 590.60 230.16 592.26 226.97 C 594.84 221.96 596.56 216.52 597.56 210.99 C 594.82 212.51 594.89 216.25 593.24 218.71 M 595.23 259.67 C 596.92 258.82 598.64 258.00 600.38 257.23 C 601.91 253.77 603.70 250.44 605.38 247.06 C 604.80 246.98 603.63 246.82 603.04 246.74 C 600.03 250.79 597.65 255.26 595.23 259.67 M 627.28 256.46 L 627.40 256.93 C 620.55 257.41 613.65 257.58 606.88 258.73 C 605.31 260.87 604.11 263.27 603.06 265.71 C 609.69 261.92 617.50 261.49 624.93 260.89 C 629.12 261.96 633.35 258.14 632.16 253.85 C 630.31 254.28 628.76 255.34 627.28 256.46 Z" />
</g>
<g id="#010102ff">
<path fill="#010102" opacity="1.00" d=" M 258.32 196.00 C 261.31 193.40 264.82 190.51 269.03 190.80 C 272.27 191.89 275.58 192.89 279.04 192.74 C 284.75 192.78 291.45 192.79 295.37 197.70 C 296.90 196.98 298.46 196.24 300.18 196.12 C 299.64 197.16 298.81 197.97 297.98 198.78 C 299.01 199.51 300.87 200.07 299.61 201.57 C 298.64 201.41 297.69 201.21 296.75 200.97 C 296.93 202.65 297.21 205.16 294.85 205.29 C 295.61 201.53 293.22 197.35 289.45 196.35 C 283.70 194.79 277.62 195.70 271.83 194.33 C 280.66 202.34 289.05 211.53 300.49 215.81 C 300.46 216.35 300.39 217.43 300.35 217.97 C 297.50 223.04 292.54 226.50 289.93 231.70 C 287.76 235.22 283.68 236.94 281.53 240.49 C 279.90 243.18 277.79 245.63 275.04 247.23 C 272.41 247.90 270.61 245.64 269.17 243.85 C 270.14 244.59 271.13 245.31 272.12 246.04 C 276.54 243.72 278.20 238.56 278.77 233.92 C 285.25 229.19 291.31 223.87 296.52 217.76 C 286.02 211.92 276.37 204.55 267.89 196.05 C 266.85 194.88 265.11 195.40 263.77 195.09 C 263.27 194.92 262.27 194.58 261.76 194.41 C 260.37 195.73 259.13 197.21 258.11 198.84 C 258.16 198.13 258.26 196.71 258.32 196.00 Z" />
</g>
<g id="#652800ff">
<path fill="#652800" opacity="1.00" d=" M 344.69 194.87 C 348.08 193.18 351.94 192.65 355.69 192.71 C 355.37 193.42 354.73 194.83 354.40 195.54 C 352.40 196.36 350.41 197.27 348.65 198.55 C 347.06 199.43 346.43 201.18 345.91 202.80 C 344.10 206.22 341.97 209.46 340.28 212.94 C 340.89 209.26 341.26 205.54 341.79 201.84 C 335.75 210.87 327.24 218.24 317.32 222.70 C 317.74 224.64 318.34 226.54 319.25 228.32 C 316.84 229.71 316.77 226.58 316.00 225.01 C 314.41 226.13 312.66 226.99 310.85 227.72 C 311.09 225.37 313.76 224.76 314.91 222.95 C 313.32 222.54 310.40 223.60 309.86 221.37 C 311.94 221.07 314.04 221.01 316.14 221.19 C 323.66 216.25 332.06 211.77 337.01 203.94 C 339.32 200.75 341.23 196.99 344.69 194.87 Z" />
<path fill="#652800" opacity="1.00" d=" M 366.42 193.48 C 370.79 193.95 376.07 195.25 378.40 199.32 C 380.20 206.41 386.50 210.96 389.36 217.50 C 390.55 219.98 390.27 222.77 390.20 225.43 C 391.82 226.16 393.47 226.89 394.78 228.13 C 393.84 228.15 391.95 228.18 391.00 228.19 C 391.07 229.00 391.20 230.62 391.26 231.42 C 389.84 231.31 388.94 230.50 388.54 228.99 C 387.18 229.97 385.71 230.77 384.02 230.98 C 384.01 229.05 386.08 228.36 386.81 226.78 C 389.04 223.58 387.72 219.37 385.71 216.41 C 382.68 211.96 379.30 207.74 376.66 203.03 C 376.97 214.67 374.38 226.57 377.54 238.03 C 377.77 239.70 379.24 242.16 377.08 243.15 C 373.94 243.26 370.78 243.50 367.64 243.27 C 364.52 242.72 361.37 242.87 358.30 243.56 C 356.70 243.83 355.01 243.98 353.48 243.38 C 349.11 241.62 344.35 242.66 339.79 242.67 C 337.59 242.62 334.69 242.54 333.84 240.07 C 333.52 238.18 333.87 236.27 334.13 234.40 C 334.30 236.24 334.93 237.98 335.59 239.69 C 340.33 239.60 344.95 238.47 349.08 236.13 C 357.38 238.10 365.82 239.90 374.40 239.79 C 371.96 227.28 371.86 214.42 372.90 201.75 C 373.30 199.97 371.82 198.72 371.00 197.35 C 370.80 196.90 370.41 195.99 370.22 195.54 C 368.55 195.17 366.88 194.77 365.17 194.89 C 365.48 194.54 366.11 193.83 366.42 193.48 Z" />
</g>
<g id="#915600ff">
<path fill="#915600" opacity="1.00" d=" M 535.56 192.88 C 540.18 193.34 545.27 193.78 548.96 196.91 C 551.29 199.31 553.55 201.82 556.43 203.59 C 561.72 206.97 566.64 211.61 573.07 212.62 C 576.52 212.67 580.39 210.85 581.84 207.57 C 582.26 207.62 583.10 207.72 583.53 207.77 C 583.53 209.86 582.24 211.47 580.90 212.94 C 582.60 213.53 584.53 214.02 584.32 216.29 C 583.35 216.14 581.40 215.84 580.42 215.69 C 580.67 217.14 580.79 218.60 580.77 220.07 C 578.68 219.24 578.24 216.77 577.15 215.04 C 574.38 215.21 571.53 215.60 568.85 214.71 C 561.94 212.70 557.11 206.84 550.50 204.24 C 550.58 206.29 550.73 208.35 551.23 210.36 C 549.25 206.33 546.82 202.53 544.18 198.91 C 542.44 196.27 539.05 195.87 536.27 195.04 C 536.10 194.50 535.74 193.42 535.56 192.88 Z" />
</g>
<g id="#7388acff">
<path fill="#7388ac" opacity="1.00" d=" M 162.84 195.90 C 169.34 193.82 177.00 194.23 182.41 198.76 C 182.42 199.66 182.43 200.56 182.44 201.46 C 180.53 202.00 178.66 202.68 176.78 203.32 C 180.66 213.45 183.35 224.07 184.66 234.83 C 184.31 238.67 179.65 237.98 177.31 236.40 C 176.46 237.79 175.98 240.04 173.94 240.00 C 172.55 239.88 171.21 239.53 169.86 239.23 C 167.18 241.21 163.48 241.37 161.19 238.67 C 158.91 234.08 158.09 228.95 157.52 223.91 C 158.92 224.66 160.33 225.41 161.74 226.14 C 162.03 228.32 162.29 230.50 162.55 232.69 C 164.59 232.56 166.59 232.14 168.54 231.54 C 168.65 229.31 168.77 227.09 168.90 224.86 C 169.28 224.88 170.03 224.90 170.41 224.91 C 172.89 227.67 177.41 229.25 180.41 226.33 C 182.56 218.20 175.26 211.11 175.73 203.00 C 175.52 201.26 176.21 199.21 175.27 197.67 C 172.94 196.38 169.58 195.34 167.35 197.35 C 165.15 199.13 162.54 200.36 160.43 202.23 C 160.13 204.13 160.16 206.07 160.10 207.99 C 159.24 208.06 157.54 208.21 156.68 208.29 C 156.73 203.56 158.18 198.06 162.84 195.90 Z" />
</g>
<g id="#e31b5aff">
<path fill="#e31b5a" opacity="1.00" d=" M 258.11 198.84 C 259.13 197.21 260.37 195.73 261.76 194.41 C 262.27 194.58 263.27 194.92 263.77 195.09 C 271.09 202.18 277.83 209.87 285.57 216.53 C 289.26 219.32 286.72 224.44 284.73 227.54 C 283.70 228.81 282.13 231.57 280.26 229.96 C 274.37 225.39 269.54 219.63 264.07 214.61 C 267.04 222.35 272.75 228.44 278.77 233.92 C 278.20 238.56 276.54 243.72 272.12 246.04 C 271.13 245.31 270.14 244.59 269.17 243.85 C 263.56 238.71 259.47 232.21 256.17 225.41 C 255.10 222.31 254.15 219.17 253.06 216.08 C 253.70 213.89 253.00 211.67 251.75 209.85 C 252.24 208.21 252.76 206.57 253.46 204.99 C 254.68 202.71 256.67 200.97 258.11 198.84 Z" />
</g>
<g id="#fefefeff">
</g>
<g id="#d43a83ff">
<path fill="#d43a83" opacity="1.00" d=" M 348.65 198.55 C 350.41 197.27 352.40 196.36 354.40 195.54 C 357.97 195.03 361.60 195.49 365.17 194.89 C 366.88 194.77 368.55 195.17 370.22 195.54 C 370.41 195.99 370.80 196.90 371.00 197.35 C 369.58 209.08 368.35 220.84 367.49 232.60 C 363.94 236.29 358.12 237.38 353.26 236.08 C 352.89 227.52 354.59 219.08 354.86 210.56 C 350.91 218.48 348.87 227.27 349.08 236.13 C 344.95 238.47 340.33 239.60 335.59 239.69 C 334.93 237.98 334.30 236.24 334.13 234.40 C 334.92 226.97 336.67 219.55 340.28 212.94 C 341.97 209.46 344.10 206.22 345.91 202.80 C 348.00 202.63 349.44 200.56 348.65 198.55 Z" />
<path fill="#d43a83" opacity="1.00" d=" M 358.30 243.56 C 361.37 242.87 364.52 242.72 367.64 243.27 C 368.03 245.17 368.16 247.10 368.19 249.05 C 369.05 250.25 370.37 251.44 370.03 253.10 C 369.27 256.44 365.38 257.86 362.29 257.64 C 360.96 257.31 360.12 257.72 359.74 258.85 C 359.26 255.84 355.65 254.29 355.74 250.98 C 355.13 248.15 356.53 245.63 358.30 243.56 Z" />
</g>
<g id="#30bbcaff">
<path fill="#30bbca" opacity="1.00" d=" M 522.80 195.88 C 523.53 195.47 524.26 195.06 525.01 194.67 C 528.72 194.29 532.51 195.16 536.27 195.04 C 539.05 195.87 542.44 196.27 544.18 198.91 C 546.82 202.53 549.25 206.33 551.23 210.36 C 555.98 218.87 558.01 228.64 557.59 238.34 C 555.35 238.40 553.11 238.43 550.88 238.45 C 548.66 237.61 546.33 236.94 544.36 235.59 C 542.64 234.26 543.31 231.84 543.09 229.99 C 545.98 230.62 548.95 230.77 551.91 230.86 C 552.57 220.16 548.58 209.36 542.07 200.95 C 538.50 195.24 530.79 197.35 525.16 197.08 C 525.29 205.07 526.59 213.00 526.70 221.00 C 526.95 222.90 526.42 225.45 528.29 226.69 C 530.83 228.10 533.86 228.68 536.75 228.49 C 538.40 225.84 537.92 222.38 538.66 219.42 C 539.10 224.30 539.57 229.22 539.15 234.13 C 538.09 235.99 535.73 235.28 533.99 235.23 C 530.79 234.99 527.93 233.47 525.34 231.69 C 524.97 219.72 523.93 207.79 522.80 195.88 Z" />
</g>
<g id="#9560b3ff">
<path fill="#9560b3" opacity="1.00" d=" M 167.35 197.35 C 169.58 195.34 172.94 196.38 175.27 197.67 C 176.21 199.21 175.52 201.26 175.73 203.00 C 175.26 211.11 182.56 218.20 180.41 226.33 C 177.41 229.25 172.89 227.67 170.41 224.91 C 173.63 224.51 176.87 224.83 180.11 224.89 C 178.46 218.86 174.92 213.58 173.09 207.61 C 168.76 207.48 164.41 207.58 160.10 207.99 C 160.16 206.07 160.13 204.13 160.43 202.23 C 162.54 200.36 165.15 199.13 167.35 197.35 Z" />
</g>
<g id="#6d3807ff">
<path fill="#6d3807" opacity="1.00" d=" M 108.11 200.72 C 110.98 200.68 112.12 197.18 114.96 196.98 C 114.56 198.73 113.22 199.89 111.91 201.00 C 113.78 201.17 115.66 201.21 117.54 201.27 C 116.26 202.87 114.09 203.09 112.20 202.72 C 112.93 204.34 113.20 206.02 113.02 207.74 C 111.20 206.54 110.96 204.23 110.08 202.41 C 103.06 203.89 95.84 204.57 88.69 203.71 C 88.93 203.18 89.40 202.10 89.64 201.57 C 95.78 202.55 102.00 201.37 108.11 200.72 Z" />
<path fill="#6d3807" opacity="1.00" d=" M 740.18 206.37 C 741.47 206.97 742.79 207.55 744.03 208.27 C 744.38 221.54 742.27 235.32 747.05 248.07 C 746.89 248.62 746.58 249.73 746.42 250.28 L 746.14 250.33 C 733.95 253.14 721.31 252.94 708.93 251.73 C 706.36 251.45 703.55 251.41 701.46 249.67 C 699.90 241.89 704.14 234.58 705.71 227.15 C 707.11 221.58 707.39 215.83 707.75 210.13 C 701.53 212.72 697.00 218.28 690.51 220.30 C 687.96 221.15 685.26 220.98 682.66 220.59 C 681.59 222.20 681.35 225.23 679.01 225.36 C 679.14 224.36 679.41 222.38 679.54 221.38 C 678.67 221.50 676.93 221.75 676.05 221.87 C 675.62 219.87 677.41 219.26 678.95 218.84 C 678.03 217.55 677.16 216.21 676.36 214.86 C 676.71 214.47 677.42 213.69 677.77 213.30 C 679.91 217.43 685.37 219.59 689.66 217.53 C 695.08 215.17 699.56 211.21 704.47 207.99 C 706.56 208.83 708.80 209.15 711.03 209.38 C 707.99 222.05 707.27 235.18 707.64 248.17 C 710.71 250.86 716.05 249.56 716.56 245.19 C 717.20 247.04 716.78 250.23 719.30 250.58 C 721.45 251.24 723.47 250.07 725.37 249.20 C 726.92 249.66 728.44 250.25 730.07 250.44 C 732.28 250.26 733.82 248.50 735.19 246.95 C 737.78 247.09 740.37 247.12 742.97 246.91 C 739.93 233.67 739.14 219.90 740.18 206.37 Z" />
</g>
<g id="#fefffdff">
</g>
<g id="#2fe1c9ff">
<path fill="#2fe1c9" opacity="1.00" d=" M 525.16 197.08 C 530.79 197.35 538.50 195.24 542.07 200.95 C 548.58 209.36 552.57 220.16 551.91 230.86 C 548.95 230.77 545.98 230.62 543.09 229.99 C 541.95 228.93 540.69 227.76 540.87 226.06 C 540.71 221.23 540.00 216.44 538.32 211.90 C 538.41 214.40 538.54 216.91 538.66 219.42 C 537.92 222.38 538.40 225.84 536.75 228.49 C 533.86 228.68 530.83 228.10 528.29 226.69 C 526.42 225.45 526.95 222.90 526.70 221.00 C 526.59 213.00 525.29 205.07 525.16 197.08 Z" />
</g>
<g id="#b5e9ffff">
<path fill="#b5e9ff" opacity="1.00" d=" M 637.12 198.10 C 638.74 196.77 641.03 197.10 642.48 198.52 C 644.99 200.63 648.21 203.44 647.64 207.07 C 647.29 207.38 646.58 208.00 646.23 208.30 C 645.55 208.86 644.87 209.41 644.20 209.95 C 642.84 208.20 641.63 206.35 640.22 204.65 C 638.91 203.70 637.51 202.88 636.14 202.06 C 636.40 200.72 636.73 199.40 637.12 198.10 Z" />
</g>
<g id="#6c3d0eff">
<path fill="#6c3d0e" opacity="1.00" d=" M 72.23 198.55 C 74.34 198.37 76.45 198.24 78.56 198.07 C 78.47 199.11 78.40 200.16 78.35 201.22 C 76.36 200.84 74.35 200.63 72.33 200.58 C 72.31 200.07 72.25 199.06 72.23 198.55 Z" />
</g>
<g id="#b3e8ffff">
<path fill="#b3e8ff" opacity="1.00" d=" M 78.56 198.07 C 82.55 196.95 86.89 198.59 89.64 201.57 C 89.40 202.10 88.93 203.18 88.69 203.71 C 88.52 204.09 88.19 204.85 88.02 205.24 C 86.79 204.73 85.55 204.26 84.30 203.81 C 83.02 203.45 81.70 203.19 80.41 202.90 C 79.47 202.68 78.09 202.54 78.35 201.22 C 78.40 200.16 78.47 199.11 78.56 198.07 Z" />
</g>
<g id="#fefeffff">
</g>
<g id="#ffc501ff">
<path fill="#ffc501" opacity="1.00" d=" M 714.77 198.61 C 719.86 198.01 726.04 197.02 730.06 201.04 C 734.40 205.67 734.83 212.36 735.85 218.31 C 736.81 227.79 737.70 237.64 735.19 246.95 C 733.82 248.50 732.28 250.26 730.07 250.44 C 728.44 250.25 726.92 249.66 725.37 249.20 C 723.47 250.07 721.45 251.24 719.30 250.58 C 716.78 250.23 717.20 247.04 716.56 245.19 C 716.05 249.56 710.71 250.86 707.64 248.17 C 707.27 235.18 707.99 222.05 711.03 209.38 C 708.80 209.15 706.56 208.83 704.47 207.99 C 702.16 203.72 708.43 201.41 711.31 199.66 C 711.59 199.52 712.15 199.23 712.43 199.09 C 715.00 199.39 717.59 199.63 720.19 199.76 C 718.39 199.32 716.58 198.94 714.77 198.61 Z" />
</g>
<g id="#b7e9ffff">
<path fill="#b7e9ff" opacity="1.00" d=" M 49.62 207.64 C 52.86 202.34 59.05 199.88 64.95 199.07 C 70.88 198.79 75.15 203.91 77.02 209.02 C 75.64 209.28 74.27 209.53 72.90 209.82 C 72.08 207.70 72.24 204.15 69.35 203.82 C 66.83 203.31 64.33 202.71 61.85 202.03 C 58.77 201.13 54.74 203.50 54.92 206.95 C 55.85 209.61 57.68 212.00 57.73 214.92 C 58.14 220.64 58.26 226.39 59.19 232.06 C 59.26 233.35 60.05 234.37 60.85 235.31 C 65.48 236.92 69.07 233.17 71.49 229.75 C 72.99 232.25 74.63 236.76 78.39 235.44 C 82.34 234.26 79.64 229.96 79.25 227.26 C 80.34 226.28 81.41 225.29 82.48 224.30 C 83.72 229.24 85.04 234.24 84.77 239.39 C 84.04 239.40 82.58 239.43 81.85 239.44 C 82.56 239.60 84.00 239.91 84.72 240.06 C 83.21 243.14 80.03 244.37 76.77 243.43 C 75.13 244.65 73.29 246.75 71.02 245.90 C 69.30 245.54 69.15 243.57 68.47 242.26 C 67.83 243.79 67.43 245.80 65.68 246.46 C 64.13 247.22 62.46 246.56 60.87 246.36 C 57.86 235.19 55.84 223.73 55.49 212.14 C 53.48 212.14 51.47 212.12 49.48 211.83 C 47.35 211.13 48.76 208.77 49.62 207.64 Z" />
</g>
<g id="#d77d90ff">
<path fill="#d77d90" opacity="1.00" d=" M 345.91 202.80 C 346.43 201.18 347.06 199.43 348.65 198.55 C 349.44 200.56 348.00 202.63 345.91 202.80 Z" />
</g>
<g id="#693707ff">
<path fill="#693707" opacity="1.00" d=" M 732.31 199.64 C 734.70 199.85 737.06 200.31 739.43 200.78 C 739.08 201.84 738.75 202.90 738.44 203.98 C 736.40 202.43 731.47 203.17 732.31 199.64 Z" />
</g>
<g id="#7488adff">
<path fill="#7488ad" opacity="1.00" d=" M 143.24 206.88 C 143.38 203.24 147.18 201.08 150.14 199.68 L 150.81 200.24 C 151.58 200.88 152.36 201.51 153.13 202.15 C 152.66 203.33 152.17 204.51 151.69 205.68 C 151.22 205.51 150.28 205.17 149.81 205.00 C 149.41 206.17 149.01 207.34 148.67 208.53 C 148.37 208.46 147.77 208.34 147.47 208.28 C 146.57 209.56 145.46 209.77 144.15 208.92 C 143.92 208.41 143.47 207.39 143.24 206.88 Z" />
</g>
<g id="#73a01eff">
<path fill="#73a01e" opacity="1.00" d=" M 423.93 201.94 C 428.80 199.71 434.56 199.85 439.59 201.50 C 444.36 203.64 445.74 209.14 446.04 213.89 C 444.75 213.83 443.47 213.76 442.20 213.69 C 442.42 211.34 443.13 208.01 440.33 206.87 C 436.96 205.64 434.91 201.55 430.98 202.06 C 429.23 202.09 427.30 202.74 426.40 204.34 C 426.24 207.26 426.99 210.24 426.21 213.12 C 424.68 218.80 422.30 224.26 421.34 230.08 C 420.57 232.67 423.43 234.25 425.59 234.52 C 428.16 235.01 430.28 233.17 432.40 232.02 C 432.77 231.86 433.51 231.53 433.89 231.36 C 434.14 234.41 433.95 238.93 438.04 239.36 C 441.84 239.40 441.14 234.74 441.31 232.19 C 442.80 231.53 444.28 230.84 445.78 230.15 C 445.24 235.30 444.61 240.54 442.47 245.31 C 440.24 248.05 436.52 248.32 433.79 246.18 C 431.96 246.54 430.04 247.55 428.17 246.79 C 426.05 246.34 426.82 243.81 426.51 242.27 C 424.88 245.24 418.39 246.63 418.33 242.11 C 418.93 230.99 421.69 220.06 425.13 209.50 C 423.19 208.89 421.26 208.27 419.33 207.63 C 418.26 204.40 421.69 203.17 423.93 201.94 Z" />
</g>
<g id="#8bdbffff">
<path fill="#8bdbff" opacity="1.00" d=" M 54.92 206.95 C 54.74 203.50 58.77 201.13 61.85 202.03 C 64.33 202.71 66.83 203.31 69.35 203.82 C 72.24 204.15 72.08 207.70 72.90 209.82 C 68.87 210.71 65.16 212.66 61.11 213.52 C 60.71 220.78 61.33 228.05 60.85 235.31 C 60.05 234.37 59.26 233.35 59.19 232.06 C 58.26 226.39 58.14 220.64 57.73 214.92 C 57.68 212.00 55.85 209.61 54.92 206.95 Z" />
</g>
<g id="#675f38ff">
<path fill="#675f38" opacity="1.00" d=" M 426.40 204.34 C 427.30 202.74 429.23 202.09 430.98 202.06 C 434.91 201.55 436.96 205.64 440.33 206.87 C 443.13 208.01 442.42 211.34 442.20 213.69 C 437.75 213.34 433.29 213.21 428.85 213.63 C 427.91 220.18 423.70 225.60 422.59 232.08 C 425.06 231.90 427.53 231.50 429.86 230.59 C 430.70 231.06 431.55 231.54 432.40 232.02 C 430.28 233.17 428.16 235.01 425.59 234.52 C 423.43 234.25 420.57 232.67 421.34 230.08 C 422.30 224.26 424.68 218.80 426.21 213.12 C 426.99 210.24 426.24 207.26 426.40 204.34 Z" />
</g>
<g id="#6f3705ff">
<path fill="#6f3705" opacity="1.00" d=" M 80.41 202.90 C 81.70 203.19 83.02 203.45 84.30 203.81 C 87.18 214.57 88.30 226.09 94.16 235.80 C 94.76 237.02 96.19 238.47 95.15 239.88 C 84.90 245.37 73.37 247.72 61.96 249.36 C 59.62 249.55 56.72 250.37 55.16 248.05 C 53.66 242.49 54.45 236.71 54.72 231.06 C 55.08 225.11 53.90 219.23 52.99 213.37 C 48.87 215.68 46.73 220.20 43.19 223.21 C 40.58 225.85 37.10 227.52 33.35 227.59 C 32.74 229.34 32.95 231.70 30.98 232.60 C 30.91 231.73 30.75 230.00 30.67 229.13 C 29.59 229.27 28.34 230.47 27.35 229.53 C 27.22 228.10 28.82 227.56 29.64 226.67 C 28.18 225.73 25.79 224.36 27.10 222.30 C 30.01 224.90 34.57 226.41 37.99 223.85 C 42.50 220.60 46.00 216.11 49.48 211.83 C 51.47 212.12 53.48 212.14 55.49 212.14 C 55.84 223.73 57.86 235.19 60.87 246.36 C 62.46 246.56 64.13 247.22 65.68 246.46 C 67.43 245.80 67.83 243.79 68.47 242.26 C 69.15 243.57 69.30 245.54 71.02 245.90 C 73.29 246.75 75.13 244.65 76.77 243.43 C 80.03 244.37 83.21 243.14 84.72 240.06 C 84.00 239.91 82.56 239.60 81.85 239.44 C 82.58 239.43 84.04 239.40 84.77 239.39 C 87.03 239.03 89.24 238.38 91.47 237.85 C 86.21 226.78 82.36 215.01 80.41 202.90 Z" />
</g>
<g id="#020002ff">
<path fill="#020002" opacity="1.00" d=" M 444.40 204.95 C 445.70 201.74 449.49 204.69 451.76 205.21 C 450.98 205.99 450.20 206.77 449.44 207.57 C 447.93 206.38 446.16 205.65 444.40 204.95 Z" />
<path fill="#020002" opacity="1.00" d=" M 404.88 214.40 C 410.09 213.10 414.55 209.95 419.33 207.63 C 421.26 208.27 423.19 208.89 425.13 209.50 C 421.69 220.06 418.93 230.99 418.33 242.11 C 418.39 246.63 424.88 245.24 426.51 242.27 C 426.82 243.81 426.05 246.34 428.17 246.79 C 430.04 247.55 431.96 246.54 433.79 246.18 C 436.52 248.32 440.24 248.05 442.47 245.31 C 444.75 245.60 447.03 245.90 449.32 246.13 C 448.02 234.10 448.98 221.86 451.33 210.01 C 452.45 210.68 453.53 211.42 454.56 212.24 C 453.34 224.26 449.95 236.43 452.91 248.48 L 451.69 249.15 C 442.46 250.67 433.03 249.36 423.92 247.64 C 419.94 246.80 415.79 246.22 412.22 244.18 C 412.05 238.20 415.05 232.89 417.37 227.59 C 419.99 221.96 421.20 215.82 422.36 209.76 C 414.71 212.06 407.72 219.43 399.18 216.18 C 398.03 217.55 397.45 219.88 395.27 219.91 C 395.54 219.03 396.08 217.28 396.35 216.41 C 395.58 216.46 394.02 216.56 393.24 216.61 C 392.67 214.69 394.40 214.53 395.82 214.22 C 395.39 212.80 393.23 210.05 395.51 209.32 C 397.31 212.63 400.92 215.42 404.88 214.40 Z" />
</g>
<g id="#95cdfeff">
<path fill="#95cdfe" opacity="1.00" d=" M 608.49 203.13 C 614.05 203.11 620.08 203.15 625.17 205.65 C 626.88 205.97 628.63 206.13 630.38 206.30 C 629.93 212.18 629.19 218.06 627.89 223.81 C 626.56 225.94 624.29 226.93 621.90 227.34 C 619.20 225.77 616.32 224.05 613.07 224.55 C 612.61 224.57 611.70 224.61 611.25 224.63 C 608.11 227.38 603.46 228.24 599.70 226.26 C 597.29 224.60 596.75 221.40 598.39 219.02 C 599.55 218.39 601.02 218.09 601.91 217.02 C 605.15 212.99 608.01 208.40 608.49 203.13 Z" />
<path fill="#95cdfe" opacity="1.00" d=" M 72.90 209.82 C 74.27 209.53 75.64 209.28 77.02 209.02 C 79.24 213.95 80.98 219.10 82.48 224.30 C 81.41 225.29 80.34 226.28 79.25 227.26 C 76.43 227.10 73.71 228.01 71.49 229.75 C 69.07 233.17 65.48 236.92 60.85 235.31 C 61.33 228.05 60.71 220.78 61.11 213.52 C 65.16 212.66 68.87 210.71 72.90 209.82 Z" />
</g>
<g id="#71a11cff">
<path fill="#71a11c" opacity="1.00" d=" M 451.76 205.21 C 454.89 204.91 457.95 207.69 459.39 210.22 C 459.38 211.50 459.32 212.79 459.22 214.08 C 458.67 214.29 457.57 214.72 457.02 214.93 C 456.23 214.01 455.41 213.11 454.56 212.24 C 453.53 211.42 452.45 210.68 451.33 210.01 L 450.53 209.53 C 450.17 208.86 449.81 208.21 449.44 207.57 C 450.20 206.77 450.98 205.99 451.76 205.21 Z" />
</g>
<g id="#062f72ff">
<path fill="#062f72" opacity="1.00" d=" M 126.91 212.96 C 132.47 211.29 138.17 209.80 143.24 206.88 C 143.47 207.39 143.92 208.41 144.15 208.92 C 138.19 212.04 131.78 214.26 125.12 215.29 C 125.10 217.11 125.11 218.93 125.13 220.76 C 122.70 220.74 123.75 218.01 123.54 216.59 C 121.92 217.02 119.52 218.64 118.21 216.85 C 119.77 216.32 121.28 215.68 122.75 214.94 C 121.42 214.11 119.34 213.98 118.96 212.17 C 121.63 212.31 124.25 214.01 126.91 212.96 Z" />
</g>
<g id="#4d0001ff">
<path fill="#4d0001" opacity="1.00" d=" M 646.23 208.30 C 646.58 208.00 647.29 207.38 647.64 207.07 C 653.35 209.58 659.05 212.17 664.99 214.10 C 667.37 214.32 669.75 213.73 672.15 213.75 C 671.66 215.82 669.31 215.30 667.80 215.66 C 668.80 217.41 670.87 217.68 672.58 218.42 C 670.92 220.39 668.22 218.15 666.50 217.38 C 666.34 218.71 666.21 220.04 666.07 221.38 C 662.86 221.54 665.33 217.67 664.51 215.82 C 658.19 213.98 651.77 211.95 646.23 208.30 Z" />
</g>
<g id="#a28bd9ff">
<path fill="#a28bd9" opacity="1.00" d=" M 156.68 208.29 C 157.54 208.21 159.24 208.06 160.10 207.99 C 164.41 207.58 168.76 207.48 173.09 207.61 C 174.92 213.58 178.46 218.86 180.11 224.89 C 176.87 224.83 173.63 224.51 170.41 224.91 C 170.03 224.90 169.28 224.88 168.90 224.86 C 166.43 224.59 164.03 225.26 161.74 226.14 C 160.33 225.41 158.92 224.66 157.52 223.91 L 157.22 223.74 C 156.79 218.60 156.67 213.44 156.68 208.29 Z" />
</g>
<g id="#6d3400ff">
<path fill="#6d3400" opacity="1.00" d=" M 749.05 209.66 C 749.38 209.15 750.05 208.13 750.38 207.62 C 757.63 210.04 765.33 210.98 772.93 211.51 C 774.76 210.39 776.68 208.98 778.97 209.30 C 778.33 211.17 776.23 211.60 774.71 212.47 C 776.07 214.49 779.72 212.65 780.08 215.31 C 778.12 215.53 776.14 215.46 774.32 214.66 C 774.14 216.09 775.90 219.85 773.46 219.63 C 772.99 217.54 772.68 215.41 771.84 213.43 C 764.08 213.76 756.38 212.10 749.05 209.66 Z" />
</g>
<g id="#88d8ffff">
<path fill="#88d8ff" opacity="1.00" d=" M 593.24 218.71 C 594.89 216.25 594.82 212.51 597.56 210.99 C 596.56 216.52 594.84 221.96 592.26 226.97 C 590.60 230.16 587.70 232.77 584.01 233.18 C 582.93 231.78 582.83 230.16 583.34 228.52 C 587.93 226.98 590.92 222.95 593.07 218.82 C 589.63 220.99 588.68 227.23 583.55 226.53 C 583.61 225.90 583.72 224.65 583.77 224.03 C 587.97 222.50 591.05 219.20 593.28 215.42 C 593.27 216.25 593.25 217.89 593.24 218.71 Z" />
</g>
<g id="#018b4fff">
<path fill="#018b4f" opacity="1.00" d=" M 428.85 213.63 C 433.29 213.21 437.75 213.34 442.20 213.69 C 443.47 213.76 444.75 213.83 446.04 213.89 C 446.50 219.31 446.03 224.74 445.78 230.15 C 444.28 230.84 442.80 231.53 441.31 232.19 C 438.89 231.55 436.39 230.98 433.89 231.36 C 433.51 231.53 432.77 231.86 432.40 232.02 C 431.55 231.54 430.70 231.06 429.86 230.59 C 427.53 231.50 425.06 231.90 422.59 232.08 C 423.70 225.60 427.91 220.18 428.85 213.63 Z" />
</g>
<g id="#89dbfeff">
<path fill="#89dbfe" opacity="1.00" d=" M 613.07 224.55 C 616.32 224.05 619.20 225.77 621.90 227.34 C 621.38 229.32 621.04 231.37 620.22 233.26 C 619.12 235.49 615.92 235.10 614.32 233.68 C 611.17 231.64 612.83 227.53 613.07 224.55 Z" />
</g>
<g id="#86deffff">
<path fill="#86deff" opacity="1.00" d=" M 633.32 221.25 C 633.82 223.14 634.23 225.05 634.56 226.98 C 634.78 229.70 634.69 232.53 635.73 235.11 C 636.86 238.34 639.74 240.44 641.76 243.08 C 640.29 245.70 636.78 245.89 635.20 243.27 C 631.93 236.44 632.78 228.55 633.32 221.25 Z" />
</g>
<g id="#975fb4ff">
<path fill="#975fb4" opacity="1.00" d=" M 161.74 226.14 C 164.03 225.26 166.43 224.59 168.90 224.86 C 168.77 227.09 168.65 229.31 168.54 231.54 C 166.59 232.14 164.59 232.56 162.55 232.69 C 162.29 230.50 162.03 228.32 161.74 226.14 Z" />
</g>
<g id="#89dcfdff">
<path fill="#89dcfd" opacity="1.00" d=" M 71.49 229.75 C 73.71 228.01 76.43 227.10 79.25 227.26 C 79.64 229.96 82.34 234.26 78.39 235.44 C 74.63 236.76 72.99 232.25 71.49 229.75 Z" />
</g>
<g id="#017abcff">
<path fill="#017abc" opacity="1.00" d=" M 290.36 233.04 C 290.60 229.92 294.57 225.25 297.65 228.10 C 299.13 229.66 301.35 229.07 303.19 229.75 C 304.57 230.86 304.63 232.77 304.44 234.38 C 304.29 235.00 303.99 236.26 303.84 236.88 C 301.26 243.93 288.80 240.42 290.36 233.04 Z" />
</g>
<g id="#000300ff">
<path fill="#000300" opacity="1.00" d=" M 328.31 235.29 C 328.64 233.37 329.31 230.47 331.89 231.02 C 333.01 235.12 331.25 239.09 329.98 242.92 C 329.04 245.16 328.25 247.71 326.21 249.22 C 318.12 246.27 311.73 240.23 303.84 236.88 C 303.99 236.26 304.29 235.00 304.44 234.38 C 312.01 237.06 317.67 243.30 325.30 245.83 C 325.43 245.33 325.71 244.32 325.85 243.82 C 326.89 241.04 327.90 238.24 328.31 235.29 Z" />
<path fill="#000300" opacity="1.00" d=" M 412.38 252.50 C 413.35 251.96 414.34 251.47 415.33 250.98 C 415.46 251.63 415.71 252.93 415.83 253.58 C 406.67 258.20 400.96 267.27 391.97 272.15 C 387.99 268.62 385.72 263.66 383.55 258.91 C 383.23 257.38 382.34 253.81 384.95 254.25 C 386.56 255.53 387.36 257.50 388.39 259.22 C 387.74 259.12 386.44 258.93 385.79 258.84 C 386.13 261.93 386.96 266.96 391.16 266.38 L 391.85 266.33 C 392.07 266.88 392.51 267.99 392.72 268.54 C 400.04 264.13 404.86 256.62 412.38 252.50 Z" />
</g>
<g id="#68603aff">
<path fill="#68603a" opacity="1.00" d=" M 433.89 231.36 C 436.39 230.98 438.89 231.55 441.31 232.19 C 441.14 234.74 441.84 239.40 438.04 239.36 C 433.95 238.93 434.14 234.41 433.89 231.36 Z" />
</g>
<g id="#ac506dff">
<path fill="#ac506d" opacity="1.00" d=" M 324.71 236.56 C 325.57 235.47 327.11 235.67 328.31 235.29 C 327.90 238.24 326.89 241.04 325.85 243.82 C 324.65 241.64 323.65 238.99 324.71 236.56 Z" />
</g>
<g id="#018dc8ff">
<path fill="#018dc8" opacity="1.00" d=" M 190.42 236.75 L 191.19 236.37 C 193.74 237.06 196.63 237.66 198.34 239.87 C 198.86 242.94 195.59 244.27 193.62 245.82 L 193.60 246.51 C 193.58 247.28 193.52 248.81 193.50 249.58 C 192.56 251.84 189.84 249.88 188.48 249.02 C 188.89 251.45 188.68 253.91 188.21 256.31 C 184.26 257.59 181.92 252.65 178.17 253.27 C 176.18 255.52 175.97 259.04 173.13 260.61 C 170.88 259.06 168.93 257.10 166.53 255.77 C 166.23 258.19 165.58 260.54 164.66 262.80 C 162.96 262.71 161.23 262.67 159.62 262.08 C 158.72 261.59 157.84 261.07 156.98 260.52 C 154.87 259.15 154.76 256.41 154.35 254.18 C 151.92 254.17 149.46 254.60 147.05 254.17 C 145.82 253.37 145.75 251.67 146.56 250.55 C 147.95 247.61 150.42 245.41 152.45 242.94 C 163.41 243.73 174.37 241.85 184.90 238.96 C 186.81 238.42 188.64 237.61 190.42 236.75 Z" />
</g>
<g id="#007bbdff">
<path fill="#007bbd" opacity="1.00" d=" M 278.43 248.51 C 281.01 243.90 283.86 238.91 288.92 236.68 C 289.64 238.78 290.36 240.87 291.11 242.96 C 289.90 246.15 287.92 249.00 285.08 250.94 C 284.39 251.01 283.01 251.17 282.33 251.25 C 280.96 251.00 279.60 250.74 278.25 250.45 C 278.29 249.97 278.38 248.99 278.43 248.51 Z" />
</g>
<g id="#652900ff">
<path fill="#652900" opacity="1.00" d=" M 99.65 241.22 C 100.44 240.45 100.93 239.26 102.06 238.92 C 104.36 242.07 106.68 245.21 109.68 247.76 C 108.36 248.33 107.17 248.12 106.10 247.13 C 105.25 244.12 103.25 240.78 99.65 241.22 Z" />
<path fill="#652900" opacity="1.00" d=" M 359.74 258.85 C 360.12 257.72 360.96 257.31 362.29 257.64 C 361.33 264.84 357.51 271.31 356.73 278.55 C 361.58 278.31 366.68 277.85 371.36 279.29 C 371.52 279.70 371.83 280.51 371.99 280.92 C 371.02 281.41 370.05 281.86 369.05 282.27 C 364.06 282.47 358.97 282.25 354.19 280.66 C 354.38 273.04 357.98 266.14 359.74 258.85 Z" />
</g>
<g id="#89f0ffff">
<path fill="#89f0ff" opacity="1.00" d=" M 61.96 249.36 C 73.37 247.72 84.90 245.37 95.15 239.88 C 96.96 245.64 93.96 253.19 87.56 254.30 C 86.74 253.14 85.88 252.01 84.91 250.98 C 83.91 251.42 83.03 252.07 82.23 252.80 C 80.99 253.68 79.89 256.14 78.00 255.11 C 75.67 254.65 73.41 252.75 70.97 253.76 C 69.49 254.18 68.66 255.53 67.78 256.68 C 65.37 257.77 62.52 258.21 61.30 255.28 C 59.95 255.76 58.61 256.27 57.28 256.80 C 54.95 254.67 53.74 251.03 55.16 248.05 C 56.72 250.37 59.62 249.55 61.96 249.36 Z" />
</g>
<g id="#e7425dff">
<path fill="#e7425d" opacity="1.00" d=" M 99.65 241.22 C 103.25 240.78 105.25 244.12 106.10 247.13 C 105.27 251.07 101.24 246.85 100.61 244.99 C 100.33 243.98 100.07 242.97 99.83 241.96 L 99.65 241.22 Z" />
<path fill="#e7425d" opacity="1.00" d=" M 633.86 267.02 C 634.87 265.79 635.96 264.63 637.05 263.47 C 637.74 263.64 639.13 263.97 639.83 264.13 C 640.10 267.41 641.01 271.27 638.10 273.68 C 633.87 276.46 633.49 270.45 633.72 267.68 L 633.86 267.02 Z" />
</g>
<g id="#d53a83ff">
<path fill="#d53a83" opacity="1.00" d=" M 339.79 242.67 C 344.35 242.66 349.11 241.62 353.48 243.38 C 352.90 245.59 352.35 247.81 351.86 250.04 C 349.74 250.72 347.56 251.26 345.34 251.35 C 344.55 251.35 342.96 251.36 342.17 251.36 C 340.55 251.18 338.97 250.77 337.40 250.40 C 337.92 247.75 338.68 245.14 339.79 242.67 Z" />
</g>
<g id="#763a05ff">
<path fill="#763a05" opacity="1.00" d=" M 92.21 261.95 C 92.35 254.59 97.25 248.59 99.83 241.96 C 100.07 242.97 100.33 243.98 100.61 244.99 C 97.46 251.33 92.78 257.80 94.24 265.28 C 92.78 265.16 91.16 265.14 90.02 264.07 C 86.60 260.96 84.57 256.71 82.23 252.80 C 83.03 252.07 83.91 251.42 84.91 250.98 C 85.88 252.01 86.74 253.14 87.56 254.30 C 89.17 256.81 90.58 259.45 92.21 261.95 Z" />
</g>
<g id="#737a1dff">
<path fill="#737a1d" opacity="1.00" d=" M 412.38 252.50 C 408.95 250.70 410.34 246.50 410.91 243.46 L 412.22 244.18 C 415.79 246.22 419.94 246.80 423.92 247.64 C 433.03 249.36 442.46 250.67 451.69 249.15 C 451.75 253.03 449.53 256.63 446.37 258.76 C 445.70 259.02 444.38 259.53 443.71 259.79 C 440.70 261.30 438.55 258.64 438.68 255.78 C 436.65 256.09 434.85 257.10 432.95 257.81 C 429.84 258.39 428.31 254.98 426.19 253.40 C 422.88 253.68 419.43 256.33 416.19 254.72 L 415.83 253.58 C 415.71 252.93 415.46 251.63 415.33 250.98 C 414.34 251.47 413.35 251.96 412.38 252.50 Z" />
</g>
<g id="#30bccbff">
<path fill="#30bccb" opacity="1.00" d=" M 534.96 247.43 C 540.90 244.40 547.72 243.00 554.29 244.76 C 554.55 245.72 554.82 246.69 555.11 247.65 C 555.75 249.79 556.30 251.97 556.45 254.20 C 554.70 254.50 552.94 254.79 551.20 255.03 C 549.36 255.21 547.51 255.25 545.68 255.17 C 543.72 255.00 541.81 254.71 539.89 254.37 C 538.56 252.57 537.12 250.64 534.75 250.26 C 535.08 255.72 532.94 263.07 526.93 264.41 C 525.40 264.31 523.89 264.16 522.38 263.93 C 519.65 263.13 516.72 261.05 516.54 257.95 C 516.45 255.97 518.64 254.86 518.91 252.96 C 518.81 251.51 518.61 250.08 518.31 248.67 C 518.65 248.25 519.32 247.41 519.66 247.00 C 519.98 246.74 520.62 246.24 520.94 245.99 C 525.54 244.84 530.91 244.54 534.96 247.43 Z" />
</g>
<g id="#905700ff">
<path fill="#905700" opacity="1.00" d=" M 565.88 250.89 C 568.01 248.53 569.00 245.11 572.06 243.68 C 573.55 247.78 575.11 251.90 577.95 255.29 C 577.83 255.66 577.58 256.40 577.46 256.77 C 574.36 254.96 570.60 253.80 568.85 250.40 C 564.12 257.10 556.28 262.85 556.34 271.80 C 554.30 272.02 552.44 271.36 551.52 269.43 C 548.63 265.11 547.47 259.97 545.68 255.17 C 547.51 255.25 549.36 255.21 551.20 255.03 C 551.98 259.39 553.34 263.60 554.33 267.91 C 556.73 261.35 561.46 256.14 565.88 250.89 Z" />
</g>
<g id="#032771ff">
<path fill="#032771" opacity="1.00" d=" M 216.87 245.74 C 217.31 245.64 218.21 245.45 218.65 245.35 C 219.12 247.41 219.32 249.62 218.23 251.53 C 216.25 255.50 214.68 260.03 211.08 262.85 C 204.20 259.95 199.38 253.95 193.50 249.58 C 193.52 248.81 193.58 247.28 193.60 246.51 C 199.49 250.34 203.89 256.09 210.10 259.49 C 210.34 259.02 210.83 258.10 211.08 257.63 C 215.04 257.95 216.18 253.93 216.73 250.83 C 216.16 250.46 215.03 249.72 214.46 249.35 C 215.25 248.13 216.07 246.94 216.87 245.74 Z" />
</g>
<g id="#fffffdff">
</g>
<g id="#8f5700ff">
<path fill="#8f5700" opacity="1.00" d=" M 502.04 247.84 C 503.31 248.07 504.51 248.66 505.15 249.86 C 509.95 257.19 517.43 262.72 520.45 271.20 C 521.05 268.76 521.72 266.34 522.38 263.93 C 523.89 264.16 525.40 264.31 526.93 264.41 C 525.47 268.43 524.38 273.77 519.91 275.44 C 517.59 275.04 518.79 271.67 517.79 270.08 C 515.03 263.88 509.76 259.34 505.57 254.15 C 504.02 257.45 500.51 258.60 497.63 260.39 C 497.28 260.39 496.57 260.39 496.22 260.38 C 498.53 256.38 500.93 252.39 502.04 247.84 Z" />
</g>
<g id="#6f3906ff">
<path fill="#6f3906" opacity="1.00" d=" M 691.06 247.64 C 694.03 248.73 696.78 250.33 699.76 251.39 C 699.41 252.50 699.05 253.61 698.70 254.71 C 696.85 254.81 695.03 254.65 693.24 254.24 C 694.15 261.89 692.51 270.67 697.91 277.02 C 697.40 279.52 694.24 278.77 692.46 278.44 C 687.02 276.53 681.99 273.63 677.11 270.61 C 678.09 267.93 681.85 267.08 684.02 268.83 C 687.27 271.11 690.49 273.46 694.00 275.34 C 692.12 270.10 691.72 264.51 691.68 258.99 C 691.72 255.19 690.53 251.44 691.06 247.64 Z" />
</g>
<g id="#a68fe0ff">
<path fill="#a68fe0" opacity="1.00" d=" M 211.08 257.63 C 211.36 254.58 212.55 251.73 214.46 249.35 C 215.03 249.72 216.16 250.46 216.73 250.83 C 216.18 253.93 215.04 257.95 211.08 257.63 Z" />
</g>
<g id="#6c3809ff">
<path fill="#6c3809" opacity="1.00" d=" M 43.53 250.24 C 46.48 251.02 48.27 253.60 50.69 255.25 C 55.22 258.43 59.83 261.63 63.27 266.04 C 63.30 263.77 63.25 261.50 63.19 259.23 C 64.27 259.23 66.43 259.22 67.51 259.21 C 66.53 262.86 67.36 269.30 62.45 270.12 C 60.76 262.43 52.50 259.74 47.48 254.73 C 46.69 253.67 45.75 252.72 44.72 251.89 C 43.66 254.49 42.99 257.26 43.48 260.07 C 43.23 261.45 42.40 262.09 40.98 262.00 C 42.36 258.20 43.40 254.30 43.53 250.24 Z" />
</g>
<g id="#682600ff">
<path fill="#682600" opacity="1.00" d=" M 342.17 251.36 C 342.96 251.36 344.55 251.35 345.34 251.35 C 342.97 255.15 340.36 258.86 338.87 263.13 C 337.04 268.16 335.04 273.16 332.01 277.60 C 327.29 276.51 323.48 273.20 319.83 270.20 C 318.75 269.15 317.02 266.51 319.12 265.62 C 323.76 267.56 327.35 271.23 331.17 274.39 C 335.64 267.10 337.19 258.40 342.17 251.36 Z" />
</g>
<g id="#f53f62ff">
<path fill="#f53f62" opacity="1.00" d=" M 44.72 251.89 C 45.75 252.72 46.69 253.67 47.48 254.73 C 47.36 256.88 46.78 263.09 43.48 260.07 C 42.99 257.26 43.66 254.49 44.72 251.89 Z" />
</g>
<g id="#f43563ff">
<path fill="#f43563" opacity="1.00" d=" M 627.28 256.46 C 628.76 255.34 630.31 254.28 632.16 253.85 C 633.35 258.14 629.12 261.96 624.93 260.89 C 626.07 260.79 627.21 260.69 628.36 260.60 C 628.03 259.37 627.71 258.15 627.40 256.93 L 627.28 256.46 Z" />
</g>
<g id="#fbffffff">
</g>
<g id="#5c3d23ff">
<path fill="#5c3d23" opacity="1.00" d=" M 63.79 258.72 C 63.85 257.49 66.56 257.50 67.17 258.42 C 66.33 258.49 64.64 258.64 63.79 258.72 Z" />
</g>
<g id="#fadd5dff">
<path fill="#fadd5d" opacity="1.00" d=" M 385.79 258.84 C 386.44 258.93 387.74 259.12 388.39 259.22 C 390.83 260.20 391.69 264.06 391.16 266.38 C 386.96 266.96 386.13 261.93 385.79 258.84 Z" />
</g>
<g id="#010300ff">
<path fill="#010300" opacity="1.00" d=" M 443.71 259.79 C 444.38 259.53 445.70 259.02 446.37 258.76 C 448.52 267.59 446.40 276.67 448.11 285.52 C 448.67 285.29 449.79 284.83 450.35 284.59 C 450.65 284.99 451.27 285.78 451.57 286.17 C 454.57 287.90 457.57 285.61 460.01 284.03 C 459.48 283.58 458.43 282.67 457.90 282.22 C 460.09 281.75 462.31 281.41 464.57 281.57 C 464.87 284.04 462.46 285.57 460.38 286.13 C 455.67 287.45 450.84 289.03 445.88 288.40 C 443.72 278.95 446.04 269.19 443.71 259.79 Z" />
</g>
<g id="#9d8dd1ff">
<path fill="#9d8dd1" opacity="1.00" d=" M 146.65 275.02 C 150.41 274.40 153.47 276.86 157.01 277.51 C 155.02 278.09 153.07 278.82 151.04 279.27 C 149.12 279.22 147.53 278.02 145.88 277.20 C 146.08 276.66 146.46 275.57 146.65 275.02 Z" />
</g>
<g id="#b74c6cff">
<path fill="#b74c6c" opacity="1.00" d=" M 280.76 278.28 C 282.46 276.53 285.04 274.59 287.58 275.55 C 288.65 276.66 289.56 277.92 290.72 278.95 C 287.41 278.61 284.08 278.49 280.76 278.28 Z" />
</g>
<g id="#fdde52ff">
<path fill="#fdde52" opacity="1.00" d=" M 451.57 286.17 C 450.28 282.79 455.61 282.31 457.90 282.22 C 458.43 282.67 459.48 283.58 460.01 284.03 C 457.57 285.61 454.57 287.90 451.57 286.17 Z" />
</g>
</svg>
