<?xml version="1.0" encoding="UTF-8" ?>
<!DOCTYPE svg PUBLIC "-//W3C//DTD SVG 1.1//EN" "http://www.w3.org/Graphics/SVG/1.1/DTD/svg11.dtd">
<svg width="494pt" height="465pt" viewBox="0 0 494 465" version="1.1" xmlns="http://www.w3.org/2000/svg">
<g id="#edc302ff">
<path fill="#edc302" opacity="1.00" d=" M 249.85 1.90 C 250.38 1.67 251.44 1.21 251.98 0.98 C 254.85 6.33 258.65 11.45 259.68 17.57 C 260.18 21.53 260.57 25.51 260.91 29.49 C 261.03 38.03 256.43 45.53 252.14 52.57 C 249.33 47.10 244.78 42.12 243.78 35.89 C 247.56 25.31 252.36 14.22 249.94 2.76 L 249.85 1.90 Z" />
<path fill="#edc302" opacity="1.00" d=" M 217.06 5.29 C 220.06 8.11 223.91 10.38 225.82 14.17 C 226.08 15.16 226.67 15.88 227.58 16.35 C 231.51 21.16 233.81 27.57 234.00 33.82 C 233.99 35.15 233.98 37.82 233.98 39.15 C 234.13 44.66 232.76 50.03 230.39 54.95 C 227.99 52.26 224.88 50.05 223.21 46.80 C 222.97 45.81 222.40 45.06 221.52 44.56 C 219.78 43.11 218.38 41.33 216.90 39.64 L 217.13 38.79 C 220.70 28.21 221.56 16.61 217.32 6.11 L 217.06 5.29 Z" />
<path fill="#edc302" opacity="1.00" d=" M 284.30 5.00 C 287.03 8.85 288.53 13.50 288.93 18.19 C 288.78 19.20 289.01 20.12 289.61 20.95 C 289.62 21.35 289.64 22.15 289.65 22.55 C 288.48 28.12 287.24 33.68 285.96 39.22 C 284.71 43.42 282.07 47.22 278.46 49.71 C 277.35 50.40 276.35 51.24 275.60 52.30 C 274.92 53.12 274.23 53.93 273.53 54.73 C 271.60 49.92 270.06 44.93 269.55 39.75 C 272.72 33.67 277.23 28.33 279.63 21.85 C 281.93 16.46 282.58 10.57 284.30 5.00 Z" />
<path fill="#edc302" opacity="1.00" d=" M 314.66 20.29 C 315.60 19.37 316.69 18.62 317.75 17.82 C 317.85 20.11 317.97 22.39 317.94 24.67 C 317.89 25.89 317.90 27.11 317.96 28.32 C 318.07 32.54 318.20 37.10 315.96 40.86 C 313.97 44.28 311.97 47.70 309.96 51.10 C 308.70 53.07 307.02 54.90 304.84 55.84 C 303.85 56.09 303.12 56.67 302.64 57.57 C 299.96 60.17 296.54 61.86 293.36 63.78 C 293.19 58.97 293.06 54.16 292.94 49.34 C 303.47 42.41 309.82 31.58 314.66 20.29 Z" />
<path fill="#edc302" opacity="1.00" d=" M 188.38 19.65 C 191.87 22.08 195.70 24.13 198.75 27.15 C 200.43 28.86 202.10 30.59 203.75 32.35 C 211.23 40.67 210.62 52.84 211.14 63.30 C 207.48 61.08 203.44 59.31 200.38 56.25 C 199.52 55.28 198.56 54.35 197.31 53.90 C 196.19 53.38 195.07 52.83 193.96 52.29 L 193.96 51.31 C 194.54 40.44 193.56 29.39 188.38 19.65 Z" />
<path fill="#edc302" opacity="1.00" d=" M 341.76 40.00 C 343.01 39.72 344.26 39.45 345.52 39.17 C 344.01 47.93 342.95 57.69 335.46 63.71 C 334.44 64.52 333.52 65.45 332.72 66.46 C 327.22 72.35 319.53 75.69 311.66 76.81 C 311.81 76.25 312.11 75.15 312.27 74.59 C 312.34 71.84 312.62 69.10 312.86 66.36 C 325.55 61.72 336.83 52.89 341.76 40.00 Z" />
<path fill="#edc302" opacity="1.00" d=" M 174.20 65.73 C 171.83 57.55 169.45 49.29 165.39 41.75 C 170.68 44.19 176.80 45.94 180.74 50.50 C 181.51 51.55 182.41 52.49 183.41 53.33 C 189.53 59.68 191.37 68.69 193.41 76.99 C 184.91 74.84 176.58 71.79 169.42 66.62 C 171.02 66.32 172.61 66.02 174.20 65.73 Z" />
<path fill="#edc302" opacity="1.00" d=" M 343.63 84.52 C 352.99 80.99 359.50 73.12 367.02 66.95 C 363.60 81.50 350.15 93.99 334.86 93.94 C 333.86 93.71 332.93 93.85 332.05 94.35 C 330.24 94.63 326.63 95.18 324.82 95.46 C 325.79 92.74 326.83 90.06 327.82 87.35 C 333.08 86.49 338.46 85.97 343.63 84.52 Z" />
<path fill="#edc302" opacity="1.00" d=" M 148.42 68.02 C 148.35 67.89 148.20 67.62 148.13 67.49 C 157.10 69.02 165.88 73.10 171.66 80.32 C 174.62 84.71 177.10 89.40 179.53 94.11 C 169.59 94.21 158.32 93.97 150.33 87.19 C 153.07 86.89 155.72 86.27 158.47 85.88 C 155.26 79.85 151.79 73.96 148.42 68.02 Z" />
<path fill="#edc302" opacity="1.00" d=" M 136.05 96.55 C 137.54 96.67 140.53 96.90 142.02 97.01 C 148.40 97.59 154.93 100.02 159.63 104.43 C 160.10 105.33 160.83 105.91 161.81 106.18 C 163.24 106.86 164.05 108.32 164.97 109.54 C 165.85 110.93 166.91 112.22 168.22 113.23 C 168.78 113.71 169.89 114.67 170.45 115.15 C 166.58 115.71 162.77 116.88 158.84 116.91 C 157.83 116.76 156.91 116.98 156.08 117.58 C 148.87 119.53 141.83 116.20 135.44 113.18 C 139.59 112.11 143.65 110.73 147.77 109.53 C 143.97 105.10 140.02 100.81 136.05 96.55 Z" />
<path fill="#edc302" opacity="1.00" d=" M 361.88 111.83 C 369.34 108.86 375.61 103.64 382.02 98.92 C 376.92 107.13 369.37 114.13 360.03 117.07 C 351.41 118.72 342.44 118.16 333.92 116.15 C 334.82 114.73 335.71 113.31 336.60 111.89 C 344.92 113.45 353.66 114.81 361.88 111.83 Z" />
<path fill="#edc302" opacity="1.00" d=" M 131.65 126.84 C 133.35 126.88 135.05 126.94 136.75 127.01 C 138.25 127.10 139.75 127.10 141.25 127.06 C 149.15 127.07 157.18 130.54 162.82 135.98 C 163.40 136.71 164.02 137.41 164.66 138.10 C 159.24 141.41 153.38 144.77 146.85 144.98 C 145.84 144.80 144.92 145.00 144.07 145.58 C 138.46 146.60 132.93 144.62 127.62 142.98 C 133.19 141.05 138.27 137.99 143.35 135.05 C 139.48 132.28 135.55 129.58 131.65 126.84 Z" />
<path fill="#edc302" opacity="1.00" d=" M 337.38 137.93 L 338.22 138.24 C 346.92 141.82 355.99 144.77 365.44 145.34 C 355.49 146.94 345.43 143.72 337.38 137.93 Z" />
<path fill="#edc302" opacity="1.00" d=" M 366.22 144.72 C 366.81 143.53 368.43 143.44 368.90 144.80 C 368.23 144.78 366.89 144.74 366.22 144.72 Z" />
<path fill="#edc302" opacity="1.00" d=" M 147.00 155.71 L 148.02 155.65 C 149.17 155.96 150.36 156.12 151.56 156.05 C 157.02 156.55 162.29 158.35 167.43 160.20 C 159.99 167.22 151.70 175.59 140.54 174.95 C 139.35 174.86 138.16 175.02 137.00 175.33 L 135.98 175.25 C 134.82 174.92 133.63 174.70 132.44 174.92 C 130.84 175.04 129.24 175.14 127.64 175.20 C 133.27 170.68 138.95 166.18 144.19 161.20 C 142.06 159.55 139.94 157.89 137.92 156.11 C 139.76 156.06 141.61 156.06 143.46 156.11 C 144.66 156.26 145.85 156.04 147.00 155.71 Z" />
</g>
<g id="#f0ce32ff">
<path fill="#f0ce32" opacity="1.00" d=" M 243.51 15.60 C 244.96 11.01 247.50 6.88 249.94 2.76 C 252.36 14.22 247.56 25.31 243.78 35.89 L 243.50 36.71 C 242.72 29.76 241.29 22.43 243.51 15.60 Z" />
<path fill="#f0ce32" opacity="1.00" d=" M 269.12 40.56 C 267.40 26.81 275.06 14.44 284.30 5.00 C 282.58 10.57 281.93 16.46 279.63 21.85 C 277.23 28.33 272.72 33.67 269.55 39.75 L 269.12 40.56 Z" />
<path fill="#f0ce32" opacity="1.00" d=" M 213.25 22.99 C 213.53 17.18 215.61 11.62 217.32 6.11 C 221.56 16.61 220.70 28.21 217.13 38.79 C 214.96 33.80 213.53 28.43 213.25 22.99 Z" />
<path fill="#f0ce32" opacity="1.00" d=" M 225.82 14.17 C 227.59 13.92 228.18 14.64 227.58 16.35 C 226.67 15.88 226.08 15.16 225.82 14.17 Z" />
<path fill="#f0ce32" opacity="1.00" d=" M 260.91 29.49 C 260.57 25.51 260.18 21.53 259.68 17.57 C 260.52 21.49 260.80 25.49 260.91 29.49 Z" />
<path fill="#f0ce32" opacity="1.00" d=" M 288.93 18.19 C 290.64 18.69 290.87 19.61 289.61 20.95 C 289.01 20.12 288.78 19.20 288.93 18.19 Z" />
<path fill="#f0ce32" opacity="1.00" d=" M 184.80 19.00 C 185.62 18.99 187.26 18.97 188.08 18.95 L 188.38 19.65 C 193.56 29.39 194.54 40.44 193.96 51.31 C 185.27 43.01 184.85 30.28 184.80 19.00 Z" />
<path fill="#f0ce32" opacity="1.00" d=" M 292.94 49.34 C 294.55 36.87 302.67 24.79 314.66 20.29 C 309.82 31.58 303.47 42.41 292.94 49.34 Z" />
<path fill="#f0ce32" opacity="1.00" d=" M 285.96 39.22 C 287.24 33.68 288.48 28.12 289.65 22.55 C 290.00 28.34 289.08 34.27 285.96 39.22 Z" />
<path fill="#f0ce32" opacity="1.00" d=" M 317.94 24.67 C 320.11 24.24 320.13 28.73 317.96 28.32 C 317.90 27.11 317.89 25.89 317.94 24.67 Z" />
<path fill="#f0ce32" opacity="1.00" d=" M 198.75 27.15 C 200.56 28.74 202.23 30.47 203.75 32.35 C 202.10 30.59 200.43 28.86 198.75 27.15 Z" />
<path fill="#f0ce32" opacity="1.00" d=" M 234.00 33.82 C 236.24 33.95 236.22 39.03 233.98 39.15 C 233.98 37.82 233.99 35.15 234.00 33.82 Z" />
<path fill="#f0ce32" opacity="1.00" d=" M 157.16 39.07 C 159.90 39.84 163.08 40.04 165.39 41.75 C 169.45 49.29 171.83 57.55 174.20 65.73 C 172.61 66.02 171.02 66.32 169.42 66.62 C 162.43 58.97 158.82 49.16 157.16 39.07 Z" />
<path fill="#f0ce32" opacity="1.00" d=" M 321.25 51.25 C 326.67 45.46 334.06 41.72 341.76 40.00 C 336.83 52.89 325.55 61.72 312.86 66.36 C 315.13 61.06 317.49 55.69 321.25 51.25 Z" />
<path fill="#f0ce32" opacity="1.00" d=" M 309.96 51.10 C 311.97 47.70 313.97 44.28 315.96 40.86 C 314.18 44.39 312.42 47.98 309.96 51.10 Z" />
<path fill="#f0ce32" opacity="1.00" d=" M 221.52 44.56 C 222.40 45.06 222.97 45.81 223.21 46.80 C 221.42 47.00 220.86 46.25 221.52 44.56 Z" />
<path fill="#f0ce32" opacity="1.00" d=" M 180.74 50.50 C 182.32 49.10 184.88 51.82 183.41 53.33 C 182.41 52.49 181.51 51.55 180.74 50.50 Z" />
<path fill="#f0ce32" opacity="1.00" d=" M 275.60 52.30 C 276.35 51.24 277.35 50.40 278.46 49.71 C 279.76 51.29 277.06 53.73 275.60 52.30 Z" />
<path fill="#f0ce32" opacity="1.00" d=" M 197.31 53.90 C 198.56 54.35 199.52 55.28 200.38 56.25 C 199.04 57.70 196.17 55.57 197.31 53.90 Z" />
<path fill="#f0ce32" opacity="1.00" d=" M 302.64 57.57 C 303.12 56.67 303.85 56.09 304.84 55.84 C 305.07 57.62 304.33 58.20 302.64 57.57 Z" />
<path fill="#f0ce32" opacity="1.00" d=" M 332.72 66.46 C 333.52 65.45 334.44 64.52 335.46 63.71 C 336.90 65.25 334.26 67.91 332.72 66.46 Z" />
<path fill="#f0ce32" opacity="1.00" d=" M 343.67 70.67 C 351.19 67.31 359.56 66.38 367.73 66.39 L 367.02 66.95 C 359.50 73.12 352.99 80.99 343.63 84.52 C 338.46 85.97 333.08 86.49 327.82 87.35 C 331.98 80.93 336.64 74.18 343.67 70.67 Z" />
<path fill="#f0ce32" opacity="1.00" d=" M 135.32 67.26 C 139.51 67.19 143.71 67.14 147.91 67.09 L 148.13 67.49 C 148.20 67.62 148.35 67.89 148.42 68.02 C 151.79 73.96 155.26 79.85 158.47 85.88 C 155.72 86.27 153.07 86.89 150.33 87.19 C 143.06 82.59 138.73 74.91 135.32 67.26 Z" />
<path fill="#f0ce32" opacity="1.00" d=" M 311.66 76.81 C 309.78 76.94 310.71 73.50 312.27 74.59 C 312.11 75.15 311.81 76.25 311.66 76.81 Z" />
<path fill="#f0ce32" opacity="1.00" d=" M 332.05 94.35 C 332.93 93.85 333.86 93.71 334.86 93.94 C 334.19 95.61 333.26 95.75 332.05 94.35 Z" />
<path fill="#f0ce32" opacity="1.00" d=" M 120.42 99.31 C 127.51 97.67 134.69 96.39 141.95 95.72 L 142.02 97.01 C 140.53 96.90 137.54 96.67 136.05 96.55 C 140.02 100.81 143.97 105.10 147.77 109.53 C 143.65 110.73 139.59 112.11 135.44 113.18 C 129.31 110.45 124.90 104.31 120.42 99.31 Z" />
<path fill="#f0ce32" opacity="1.00" d=" M 360.45 96.58 C 367.93 95.32 375.37 96.78 382.64 98.44 L 382.02 98.92 C 375.61 103.64 369.34 108.86 361.88 111.83 C 353.66 114.81 344.92 113.45 336.60 111.89 C 342.65 104.49 350.63 97.75 360.45 96.58 Z" />
<path fill="#f0ce32" opacity="1.00" d=" M 159.63 104.43 C 161.33 103.81 162.05 104.39 161.81 106.18 C 160.83 105.91 160.10 105.33 159.63 104.43 Z" />
<path fill="#f0ce32" opacity="1.00" d=" M 164.97 109.54 C 166.91 108.31 169.66 111.45 168.22 113.23 C 166.91 112.22 165.85 110.93 164.97 109.54 Z" />
<path fill="#f0ce32" opacity="1.00" d=" M 156.08 117.58 C 156.91 116.98 157.83 116.76 158.84 116.91 C 158.32 118.62 157.40 118.84 156.08 117.58 Z" />
<path fill="#f0ce32" opacity="1.00" d=" M 136.75 127.01 C 136.68 124.82 141.35 124.88 141.25 127.06 C 139.75 127.10 138.25 127.10 136.75 127.01 Z" />
<path fill="#f0ce32" opacity="1.00" d=" M 361.41 126.48 C 371.52 124.80 380.86 129.29 389.54 133.74 C 383.21 138.21 376.83 143.72 368.90 144.80 C 368.43 143.44 366.81 143.53 366.22 144.72 C 366.03 144.87 365.64 145.18 365.44 145.34 C 355.99 144.77 346.92 141.82 338.22 138.24 C 344.99 132.81 352.37 127.02 361.41 126.48 Z" />
<path fill="#f0ce32" opacity="1.00" d=" M 114.25 134.46 C 119.82 131.43 125.61 128.80 131.65 126.84 C 135.55 129.58 139.48 132.28 143.35 135.05 C 138.27 137.99 133.19 141.05 127.62 142.98 C 122.50 141.46 118.44 137.63 114.25 134.46 Z" />
<path fill="#f0ce32" opacity="1.00" d=" M 162.82 135.98 C 164.21 133.73 167.56 138.06 164.66 138.10 C 164.02 137.41 163.40 136.71 162.82 135.98 Z" />
<path fill="#f0ce32" opacity="1.00" d=" M 144.07 145.58 C 144.92 145.00 145.84 144.80 146.85 144.98 C 146.29 146.68 145.37 146.88 144.07 145.58 Z" />
<path fill="#f0ce32" opacity="1.00" d=" M 143.46 156.11 C 143.32 154.22 146.52 154.04 147.00 155.71 C 145.85 156.04 144.66 156.26 143.46 156.11 Z" />
<path fill="#f0ce32" opacity="1.00" d=" M 148.02 155.65 C 148.47 153.94 151.72 154.14 151.56 156.05 C 150.36 156.12 149.17 155.96 148.02 155.65 Z" />
<path fill="#f0ce32" opacity="1.00" d=" M 336.34 160.41 C 345.90 157.07 356.23 153.73 366.35 156.59 C 374.64 158.76 381.33 164.54 387.66 170.02 C 380.62 172.58 373.57 175.79 365.95 175.94 C 354.21 175.65 343.78 169.14 336.34 160.41 Z" />
<path fill="#f0ce32" opacity="1.00" d=" M 116.51 170.82 C 122.75 164.76 129.53 158.90 137.92 156.11 C 139.94 157.89 142.06 159.55 144.19 161.20 C 138.95 166.18 133.27 170.68 127.64 175.20 C 123.90 173.82 120.16 172.42 116.51 170.82 Z" />
<path fill="#f0ce32" opacity="1.00" d=" M 132.44 174.92 C 133.63 174.70 134.82 174.92 135.98 175.25 C 135.53 176.90 132.35 176.79 132.44 174.92 Z" />
<path fill="#f0ce32" opacity="1.00" d=" M 137.00 175.33 C 138.16 175.02 139.35 174.86 140.54 174.95 C 140.70 176.86 137.44 177.03 137.00 175.33 Z" />
</g>
<g id="#f35f5fff">
<path fill="#f35f5f" opacity="1.00" d=" M 235.17 60.22 C 240.86 67.99 245.79 76.97 245.05 86.99 C 243.98 94.35 240.80 101.21 236.86 107.46 C 232.25 100.34 226.81 92.86 227.02 83.96 C 225.78 75.20 231.46 67.61 235.17 60.22 Z" />
<path fill="#f35f5f" opacity="1.00" d=" M 274.69 89.63 C 275.62 82.27 278.58 74.41 284.57 69.73 C 290.85 77.72 293.61 88.37 291.44 98.38 C 289.76 104.43 286.36 109.87 282.46 114.73 C 277.48 107.38 273.39 98.79 274.69 89.63 Z" />
<path fill="#f35f5f" opacity="1.00" d=" M 247.41 103.34 C 250.42 92.34 258.56 83.49 268.06 77.53 C 270.21 87.51 272.88 98.32 269.28 108.30 C 265.92 118.47 257.94 126.29 249.17 132.03 C 247.44 122.66 244.32 112.80 247.41 103.34 Z" />
<path fill="#f35f5f" opacity="1.00" d=" M 199.63 84.56 C 208.96 86.42 219.00 90.44 223.92 99.07 C 227.63 104.51 228.20 111.21 229.39 117.52 C 221.33 114.86 211.84 112.68 207.01 105.00 C 202.47 99.08 200.81 91.75 199.63 84.56 Z" />
<path fill="#f35f5f" opacity="1.00" d=" M 293.94 113.95 C 302.26 108.84 312.50 109.63 321.75 111.19 C 317.70 118.94 311.83 126.08 303.63 129.58 C 295.90 132.32 287.49 131.73 279.59 130.12 C 283.28 123.89 287.68 117.81 293.94 113.95 Z" />
<path fill="#f35f5f" opacity="1.00" d=" M 174.10 117.58 C 181.47 114.19 189.50 111.91 197.68 112.31 C 209.26 113.07 218.70 120.80 226.41 128.82 C 215.89 133.37 203.21 136.85 192.30 131.63 C 185.06 128.80 178.67 123.86 174.10 117.58 Z" />
<path fill="#f35f5f" opacity="1.00" d=" M 192.98 139.48 C 201.82 139.72 211.15 140.49 218.93 145.11 C 227.92 150.38 234.97 159.05 237.92 169.09 C 240.31 178.18 239.90 187.68 240.08 197.00 C 240.00 219.33 239.98 241.66 240.00 264.00 C 195.00 264.00 150.00 264.01 105.00 263.99 C 105.00 261.25 105.00 255.75 105.00 253.01 C 135.01 252.94 165.02 253.03 195.03 253.10 C 198.21 252.85 201.85 253.42 204.80 251.79 C 215.33 245.91 223.37 235.06 224.53 222.87 C 225.55 206.33 225.38 189.71 224.56 173.16 C 223.90 166.07 219.88 159.82 215.67 154.30 C 209.86 147.12 201.04 143.44 192.98 139.48 Z" />
<path fill="#f35f5f" opacity="1.00" d=" M 284.87 142.83 C 291.30 139.99 298.48 140.45 305.33 140.08 C 296.06 143.68 286.69 148.51 281.07 157.06 C 272.26 168.72 273.07 184.22 272.84 198.00 C 272.88 212.46 271.71 228.70 281.11 240.92 C 285.50 246.48 290.96 253.52 299.00 252.79 C 330.32 253.46 361.67 252.74 393.00 253.00 C 393.00 255.75 393.00 261.25 393.00 263.99 C 348.34 264.14 303.68 263.65 259.03 264.41 C 259.15 235.93 258.69 207.45 259.11 178.97 C 260.05 163.39 270.22 148.55 284.87 142.83 Z" />
<path fill="#f35f5f" opacity="1.00" d=" M 183.04 156.05 C 189.72 152.09 197.77 152.31 205.27 152.71 C 201.76 159.38 198.49 166.68 191.99 170.97 C 185.16 176.45 175.76 175.29 167.62 175.45 C 171.09 167.96 175.32 159.89 183.04 156.05 Z" />
<path fill="#f35f5f" opacity="1.00" d=" M 291.28 153.81 C 298.77 153.78 307.02 151.28 314.03 154.96 C 321.69 158.44 327.44 165.29 330.74 172.93 C 322.83 173.44 314.25 175.07 307.03 170.90 C 299.81 167.36 295.41 160.38 291.28 153.81 Z" />
<path fill="#f35f5f" opacity="1.00" d=" M 361.22 289.48 C 365.66 286.89 370.00 284.13 374.02 280.92 C 383.14 285.19 394.61 283.28 402.30 290.69 C 412.05 299.73 413.01 314.05 411.32 326.39 C 410.31 335.73 405.45 344.33 398.98 350.99 C 391.37 358.52 380.40 360.60 370.20 361.93 C 371.33 389.33 377.61 418.55 396.74 439.29 C 416.31 460.47 452.01 464.72 475.18 447.16 C 481.34 443.01 486.53 436.88 494.00 435.16 L 494.00 437.11 C 479.58 458.31 451.26 468.77 426.40 462.37 C 407.04 457.79 390.37 444.60 380.52 427.44 C 367.32 405.06 362.72 378.42 364.16 352.71 C 371.47 353.75 379.28 355.65 386.31 352.34 C 406.49 342.32 413.31 312.43 399.16 294.81 C 393.07 287.04 382.89 289.49 374.46 288.98 C 365.14 332.99 356.60 377.17 347.18 421.16 C 345.56 421.37 342.32 421.79 340.70 422.00 C 348.41 379.07 358.41 336.59 367.19 293.88 C 362.80 297.06 358.56 301.87 352.64 299.70 C 355.16 296.06 357.04 291.54 361.22 289.48 Z" />
<path fill="#f35f5f" opacity="1.00" d=" M 92.05 285.88 C 92.56 282.83 95.97 282.18 98.30 281.01 C 99.02 288.73 96.72 296.26 95.82 303.86 C 92.87 328.88 88.56 354.33 93.30 379.43 C 96.50 379.94 99.72 380.51 102.92 381.06 C 102.98 382.55 103.04 384.05 103.11 385.56 C 100.03 386.12 96.91 386.43 93.78 386.60 C 94.47 398.34 97.16 409.85 98.00 421.57 C 96.29 421.76 94.59 421.94 92.88 422.12 C 89.56 410.03 88.40 397.55 87.08 385.14 C 74.12 384.34 61.14 383.84 48.15 383.94 C 36.24 400.13 23.27 419.90 1.55 422.57 C 1.51 420.13 1.56 417.69 1.68 415.25 C 7.44 415.00 13.01 413.14 17.66 409.66 C 27.18 402.81 34.50 393.54 41.10 383.97 C 34.74 383.31 28.33 383.06 22.04 381.89 C 23.46 379.69 24.61 376.07 27.84 376.29 C 33.62 376.43 39.37 377.17 45.12 377.70 C 54.63 364.56 62.01 350.07 70.02 336.01 C 78.84 320.02 87.63 303.73 92.05 285.88 M 52.59 377.72 C 63.76 377.93 74.93 378.09 86.08 378.84 C 83.83 357.44 86.26 336.04 87.84 314.70 C 76.98 336.20 65.03 357.11 52.59 377.72 Z" />
<path fill="#f35f5f" opacity="1.00" d=" M 157.17 280.76 C 159.10 282.18 161.50 283.82 160.54 286.59 C 155.88 310.55 149.68 334.20 144.83 358.13 C 165.15 335.66 185.56 313.26 205.16 290.16 C 208.04 286.79 211.11 283.41 215.43 281.97 C 215.18 287.68 211.22 291.72 207.87 295.85 C 190.86 315.49 173.36 334.71 156.25 354.26 C 153.58 357.10 152.76 361.02 153.23 364.84 C 155.49 379.32 161.17 393.27 169.96 405.02 C 175.11 411.83 183.25 417.07 192.01 416.90 C 199.36 418.33 203.12 410.42 209.92 409.88 C 209.95 410.97 210.02 413.15 210.06 414.24 C 205.05 418.79 199.34 423.82 191.96 422.92 C 181.12 424.07 171.80 416.59 165.24 408.77 C 154.52 396.18 151.05 379.59 146.38 364.22 C 144.31 367.22 141.50 369.95 140.64 373.62 C 136.96 388.23 134.63 403.13 131.68 417.89 C 131.27 421.05 128.18 422.53 125.79 424.04 C 125.28 413.62 128.60 403.53 130.39 393.39 C 136.38 362.71 143.97 332.38 150.79 301.89 C 152.34 294.69 154.43 287.60 157.17 280.76 Z" />
<path fill="#f35f5f" opacity="1.00" d=" M 306.05 285.88 C 306.56 282.83 309.97 282.18 312.30 281.01 C 313.02 288.73 310.72 296.26 309.82 303.86 C 306.87 328.88 302.56 354.33 307.30 379.43 C 310.49 379.94 313.72 380.51 316.92 381.06 C 316.98 382.55 317.04 384.05 317.11 385.56 C 314.02 386.12 310.91 386.43 307.78 386.60 C 308.47 398.34 311.16 409.85 312.00 421.57 C 310.29 421.76 308.58 421.94 306.88 422.12 C 303.56 410.03 302.40 397.55 301.08 385.14 C 288.12 384.34 275.13 383.84 262.15 383.94 C 250.24 400.13 237.27 419.90 215.55 422.57 C 215.51 420.13 215.56 417.69 215.68 415.25 C 221.44 415.00 227.01 413.14 231.66 409.66 C 241.18 402.81 248.50 393.54 255.10 383.97 C 248.74 383.31 242.33 383.06 236.04 381.89 C 237.46 379.69 238.61 376.07 241.84 376.29 C 247.61 376.43 253.36 377.17 259.12 377.70 C 268.63 364.56 276.01 350.07 284.02 336.01 C 292.84 320.02 301.63 303.73 306.05 285.88 M 266.59 377.72 C 277.75 377.93 288.93 378.09 300.08 378.84 C 297.83 357.44 300.26 336.04 301.84 314.70 C 290.98 336.20 279.03 357.11 266.59 377.72 Z" />
<path fill="#f35f5f" opacity="1.00" d=" M 441.71 283.91 C 452.58 284.03 463.62 283.17 474.40 284.91 C 474.14 292.10 464.85 289.19 460.20 290.38 C 450.20 331.98 440.13 373.57 431.91 415.57 C 436.97 416.17 442.08 416.74 447.12 417.63 C 447.04 418.43 446.90 420.03 446.83 420.83 C 446.12 421.55 445.43 422.28 444.74 423.01 C 433.61 422.23 422.44 421.98 411.35 420.98 C 413.84 415.22 420.96 416.25 426.03 415.36 C 434.41 373.40 444.32 331.78 454.04 290.11 C 449.18 290.02 444.36 289.96 439.52 289.90 C 440.24 287.89 440.97 285.90 441.71 283.91 Z" />
</g>
</svg>
